<svg id="svg" version="1.1" width="200" height="100" viewBox="0 0 400 266.796875" xmlns="http://www.w3.org/2000/svg" xmlns:xlink="http://www.w3.org/1999/xlink" ><g id="svgg"><path id="path0" d="" stroke="none" fill="#dc2404" fill-rule="evenodd"></path><path id="path1" d="M135.218 18.502 C 131.971 22.272,132.409 22.110,129.278 20.702 C 128.402 20.308,127.325 19.832,126.885 19.644 C 126.444 19.457,125.633 19.084,125.082 18.815 C 123.680 18.132,123.666 18.328,124.971 20.443 C 125.601 21.466,126.201 22.479,126.304 22.693 C 126.406 22.907,126.728 23.442,127.018 23.883 C 128.639 26.343,128.661 26.097,126.618 28.393 C 122.180 33.379,122.234 33.277,124.255 32.849 C 126.239 32.428,128.902 31.817,130.087 31.510 C 130.674 31.358,131.233 31.231,131.330 31.227 C 131.426 31.224,132.488 32.902,133.689 34.956 C 135.989 38.890,136.358 39.365,136.358 38.390 C 136.358 36.721,136.963 30.259,137.137 30.077 C 137.323 29.882,138.266 29.641,143.629 28.413 C 146.284 27.805,146.362 27.904,141.690 25.922 C 139.491 24.989,137.679 24.088,137.664 23.921 C 137.608 23.324,137.704 21.979,137.991 19.346 C 138.501 14.645,138.530 14.654,135.218 18.502 M66.446 27.552 C 66.448 27.979,64.287 34.731,59.230 50.100 L 57.803 54.436 43.381 54.436 L 28.960 54.436 29.837 55.037 C 30.319 55.367,32.027 56.598,33.632 57.772 C 35.237 58.946,37.874 60.867,39.493 62.041 C 41.112 63.215,43.991 65.317,45.890 66.711 C 47.790 68.105,49.946 69.666,50.681 70.180 C 51.416 70.694,52.069 71.241,52.131 71.397 C 52.230 71.640,50.535 77.304,49.900 78.853 C 49.780 79.146,48.878 81.908,47.897 84.990 C 44.505 95.637,44.236 96.468,43.869 97.465 C 43.328 98.933,42.838 99.224,50.945 93.262 C 52.542 92.088,54.112 90.947,54.435 90.727 C 54.758 90.507,56.182 89.477,57.598 88.439 C 59.015 87.400,61.595 85.509,63.332 84.236 C 65.069 82.963,66.570 81.922,66.667 81.924 C 66.839 81.926,70.722 84.706,77.652 89.785 C 79.486 91.130,82.220 93.123,83.726 94.214 C 85.232 95.305,87.154 96.701,87.996 97.316 C 89.877 98.690,89.887 98.665,88.771 95.240 C 88.273 93.712,87.050 89.940,86.051 86.858 C 85.053 83.776,83.535 79.119,82.679 76.510 C 81.822 73.901,81.121 71.659,81.121 71.528 C 81.121 71.397,82.712 70.150,84.656 68.757 C 86.601 67.364,89.061 65.583,90.123 64.800 C 91.186 64.016,93.287 62.483,94.793 61.391 C 96.299 60.300,99.008 58.319,100.812 56.988 L 104.092 54.570 89.754 54.436 L 75.417 54.303 75.196 53.369 C 75.074 52.855,74.872 52.251,74.746 52.026 C 74.620 51.801,74.427 51.205,74.316 50.700 C 74.206 50.196,74.019 49.600,73.902 49.375 C 73.785 49.150,73.010 46.805,72.179 44.163 C 71.348 41.521,70.568 39.119,70.446 38.826 C 70.323 38.532,69.425 35.801,68.451 32.755 C 66.810 27.630,66.442 26.674,66.446 27.552 M154.650 43.629 C 154.743 44.510,154.988 46.237,155.195 47.467 C 155.841 51.312,156.120 50.868,151.686 53.055 C 147.471 55.134,147.308 55.337,149.626 55.609 C 151.808 55.865,155.632 56.577,156.090 56.813 C 156.479 57.013,156.954 59.257,157.291 62.494 C 157.646 65.899,157.840 66.256,158.534 64.777 C 158.758 64.300,159.648 62.553,160.512 60.895 L 162.084 57.881 163.564 58.052 C 164.377 58.146,165.884 58.383,166.911 58.579 C 167.939 58.775,169.320 59.018,169.980 59.120 L 171.181 59.305 170.647 58.701 C 170.354 58.370,169.004 56.944,167.647 55.533 C 164.869 52.645,164.863 52.624,166.015 50.506 C 168.856 45.284,169.245 44.372,168.446 44.820 C 168.189 44.963,166.392 45.864,164.453 46.820 L 160.927 48.560 157.703 45.294 L 154.480 42.028 154.650 43.629 M159.155 81.855 C 158.959 82.749,158.053 85.907,157.544 87.468 C 157.339 88.097,157.171 88.774,157.171 88.973 C 157.171 89.522,156.557 89.657,153.881 89.693 C 150.193 89.743,147.564 90.020,148.299 90.282 C 148.629 90.400,148.899 90.608,148.899 90.745 C 148.899 90.882,149.014 90.994,149.154 90.994 C 149.294 90.994,150.705 91.883,152.289 92.971 C 155.710 95.318,155.596 94.755,153.840 100.600 C 153.208 102.701,152.942 103.803,153.065 103.803 C 153.194 103.803,159.025 99.295,159.525 98.809 C 159.719 98.620,160.002 98.466,160.153 98.466 C 160.468 98.466,167.345 102.999,167.641 103.402 C 167.977 103.860,167.871 103.470,167.025 101.132 C 166.574 99.886,166.100 98.566,165.973 98.199 C 165.845 97.832,165.559 97.051,165.337 96.464 C 164.729 94.857,164.788 94.693,166.445 93.398 C 167.289 92.739,168.875 91.500,169.970 90.646 L 171.962 89.092 167.569 89.127 C 162.130 89.169,162.508 89.197,162.508 88.756 C 162.508 88.553,162.329 88.043,162.110 87.622 C 161.890 87.202,161.710 86.655,161.709 86.407 C 161.709 86.158,161.601 85.889,161.471 85.809 C 161.340 85.728,161.153 85.331,161.054 84.926 C 160.323 81.918,159.451 80.508,159.155 81.855 M134.917 111.788 C 133.516 113.538,132.258 115.039,132.121 115.123 C 131.984 115.207,130.450 114.727,128.711 114.056 C 123.349 111.985,123.256 111.974,124.305 113.543 C 124.698 114.130,125.785 115.781,126.721 117.213 L 128.424 119.816 126.862 121.855 C 126.003 122.977,125.176 124.027,125.025 124.189 C 124.387 124.872,122.722 127.018,122.830 127.018 C 123.073 127.018,129.396 125.336,130.695 124.925 L 131.571 124.649 134.074 128.399 L 136.578 132.150 136.729 130.718 C 136.812 129.930,136.972 127.917,137.085 126.245 L 137.292 123.203 139.026 122.689 C 141.328 122.007,143.179 121.490,144.563 121.144 C 146.104 120.758,146.007 120.592,143.763 119.764 C 142.698 119.372,141.167 118.792,140.360 118.476 C 139.553 118.160,138.592 117.812,138.225 117.701 L 137.558 117.501 137.656 113.053 C 137.710 110.607,137.688 108.606,137.609 108.606 C 137.530 108.606,136.318 110.038,134.917 111.788 " stroke="none" fill="#fbdb04" fill-rule="evenodd"></path><path id="path2" d="M138.119 14.881 C 138.280 14.988,138.481 15.257,138.565 15.477 C 138.666 15.744,138.724 15.678,138.738 15.277 C 138.752 14.873,138.606 14.678,138.292 14.681 C 138.004 14.683,137.938 14.760,138.119 14.881 M138.293 17.211 C 138.296 17.799,138.350 18.007,138.414 17.675 C 138.478 17.343,138.476 16.863,138.409 16.608 C 138.342 16.353,138.290 16.624,138.293 17.211 M132.997 20.579 C 132.717 20.889,132.248 21.242,131.955 21.362 C 131.577 21.517,131.543 21.586,131.838 21.597 C 132.067 21.607,132.600 21.254,133.022 20.814 C 133.444 20.374,133.725 20.013,133.647 20.013 C 133.569 20.013,133.276 20.268,132.997 20.579 M145.846 27.610 C 146.354 27.994,146.354 28.002,145.853 28.010 C 145.571 28.015,145.416 28.094,145.508 28.185 C 145.599 28.277,145.873 28.275,146.116 28.182 C 146.598 27.997,146.192 27.218,145.613 27.218 C 145.457 27.218,145.561 27.394,145.846 27.610 M136.697 36.024 C 136.697 36.684,136.749 36.955,136.813 36.624 C 136.876 36.294,136.876 35.754,136.813 35.424 C 136.749 35.093,136.697 35.364,136.697 36.024 M160.031 47.504 C 160.504 48.000,160.935 48.351,160.991 48.285 C 161.046 48.219,160.659 47.814,160.132 47.384 L 159.173 46.603 160.031 47.504 M57.638 53.858 C 57.638 54.091,54.009 54.186,43.296 54.234 L 28.953 54.298 43.213 54.370 C 56.665 54.437,58.450 54.359,57.821 53.729 C 57.720 53.629,57.638 53.687,57.638 53.858 M75.692 54.236 C 75.760 54.346,82.247 54.436,90.108 54.436 C 103.683 54.436,104.383 54.460,104.035 54.903 C 103.702 55.329,103.711 55.337,104.147 54.995 C 104.410 54.788,104.527 54.520,104.406 54.399 C 104.130 54.124,75.522 53.962,75.692 54.236 M169.216 56.971 C 170.336 58.145,171.317 59.286,171.396 59.506 C 171.521 59.858,171.541 59.857,171.560 59.500 C 171.572 59.276,170.590 58.136,169.380 56.965 L 167.178 54.837 169.216 56.971 M171.139 88.788 C 172.164 88.894,172.165 88.895,171.673 89.477 L 171.181 90.060 171.775 89.557 C 172.552 88.900,172.318 88.582,171.098 88.637 L 170.113 88.682 171.139 88.788 M166.177 89.052 C 166.654 89.111,167.435 89.111,167.912 89.052 C 168.389 88.993,167.999 88.945,167.045 88.945 C 166.091 88.945,165.700 88.993,166.177 89.052 M148.966 89.587 C 149.516 89.645,150.417 89.645,150.967 89.587 C 151.518 89.530,151.067 89.483,149.967 89.483 C 148.866 89.483,148.416 89.530,148.966 89.587 M137.772 114.743 C 137.772 115.550,137.822 115.881,137.883 115.477 C 137.944 115.073,137.944 114.413,137.883 114.009 C 137.822 113.606,137.772 113.936,137.772 114.743 M137.231 124.883 C 137.231 125.544,137.283 125.814,137.346 125.484 C 137.410 125.153,137.410 124.613,137.346 124.283 C 137.283 123.953,137.231 124.223,137.231 124.883 M136.891 131.399 C 136.891 131.900,136.741 132.371,136.558 132.445 C 136.358 132.525,136.412 132.588,136.691 132.601 C 137.062 132.617,137.158 132.401,137.158 131.554 C 137.158 130.967,137.098 130.487,137.025 130.487 C 136.951 130.487,136.891 130.897,136.891 131.399 " stroke="none" fill="#ea6804" fill-rule="evenodd"></path><path id="path3" d="M137.533 15.544 L 137.025 16.144 137.604 15.655 C 138.171 15.176,138.185 15.179,138.301 15.789 C 138.408 16.349,138.423 16.338,138.456 15.677 C 138.500 14.786,138.210 14.744,137.533 15.544 M136.207 17.145 L 135.424 18.012 136.291 17.228 C 136.768 16.797,137.158 16.407,137.158 16.361 C 137.158 16.155,136.938 16.336,136.207 17.145 M134.339 19.280 L 133.556 20.147 134.423 19.363 C 134.900 18.932,135.290 18.542,135.290 18.496 C 135.290 18.290,135.070 18.471,134.339 19.280 M132.738 21.147 L 131.955 22.015 132.822 21.231 C 133.299 20.800,133.689 20.410,133.689 20.364 C 133.689 20.158,133.469 20.339,132.738 21.147 M137.772 21.881 C 137.772 22.688,137.822 23.019,137.883 22.615 C 137.944 22.211,137.944 21.551,137.883 21.147 C 137.822 20.744,137.772 21.074,137.772 21.881 M130.487 21.214 C 130.854 21.424,131.274 21.595,131.421 21.595 C 131.568 21.595,131.388 21.424,131.021 21.214 C 130.654 21.004,130.233 20.833,130.087 20.833 C 129.940 20.833,130.120 21.004,130.487 21.214 M125.390 21.481 C 125.840 22.351,126.209 22.834,126.207 22.548 C 126.206 22.402,125.960 21.981,125.660 21.614 C 125.298 21.171,125.207 21.127,125.390 21.481 M66.660 27.352 C 66.795 27.645,66.973 28.065,67.054 28.286 C 67.182 28.631,67.206 28.629,67.224 28.270 C 67.235 28.041,67.058 27.621,66.830 27.336 C 66.421 26.826,66.419 26.826,66.660 27.352 M127.019 27.617 C 126.675 27.984,126.444 28.328,126.506 28.383 C 126.567 28.437,126.897 28.138,127.238 27.717 C 128.002 26.775,127.868 26.714,127.019 27.617 M125.267 29.686 L 124.483 30.554 125.350 29.770 C 126.159 29.039,126.340 28.819,126.134 28.819 C 126.088 28.819,125.698 29.209,125.267 29.686 M136.998 30.261 C 136.918 30.468,136.896 31.038,136.947 31.529 C 137.029 32.312,137.056 32.265,137.168 31.154 C 137.299 29.854,137.251 29.602,136.998 30.261 M123.666 31.554 L 122.882 32.422 123.749 31.638 C 124.558 30.907,124.739 30.687,124.533 30.687 C 124.487 30.687,124.097 31.077,123.666 31.554 M131.021 31.419 C 131.241 31.504,131.578 31.765,131.769 31.998 C 132.065 32.357,132.073 32.331,131.827 31.821 C 131.667 31.491,131.330 31.230,131.078 31.242 C 130.707 31.259,130.696 31.292,131.021 31.419 M129.153 31.767 C 128.860 31.965,128.968 31.989,129.553 31.858 C 130.534 31.639,130.747 31.486,130.064 31.492 C 129.783 31.494,129.373 31.618,129.153 31.767 M68.465 32.822 C 68.563 33.189,68.755 33.669,68.891 33.889 C 69.063 34.167,69.084 34.086,68.960 33.622 C 68.862 33.256,68.670 32.775,68.534 32.555 C 68.362 32.277,68.341 32.358,68.465 32.822 M125.684 32.567 C 125.391 32.765,125.499 32.790,126.084 32.659 C 127.065 32.440,127.278 32.287,126.596 32.292 C 126.314 32.295,125.904 32.418,125.684 32.567 M136.701 33.756 C 136.703 34.490,136.755 34.758,136.816 34.353 C 136.877 33.947,136.876 33.347,136.812 33.018 C 136.749 32.690,136.699 33.022,136.701 33.756 M122.333 33.114 C 122.251 33.247,122.491 33.356,122.866 33.356 C 123.684 33.356,123.750 33.203,123.016 33.011 C 122.722 32.935,122.415 32.981,122.333 33.114 M136.419 37.091 C 136.419 37.605,136.474 37.815,136.542 37.558 C 136.609 37.302,136.609 36.881,136.542 36.624 C 136.474 36.368,136.419 36.578,136.419 37.091 M62.495 39.413 C 62.328 39.956,62.236 40.444,62.290 40.498 C 62.344 40.552,62.532 40.160,62.708 39.626 C 62.884 39.093,62.977 38.605,62.913 38.541 C 62.850 38.478,62.662 38.870,62.495 39.413 M61.671 41.924 C 61.506 42.396,61.419 42.828,61.476 42.885 C 61.533 42.943,61.714 42.603,61.878 42.132 C 62.043 41.660,62.130 41.228,62.073 41.171 C 62.016 41.114,61.835 41.453,61.671 41.924 M154.272 42.628 C 154.306 43.312,154.317 43.318,154.429 42.724 C 154.540 42.138,154.748 42.278,156.995 44.459 L 159.440 46.831 157.044 44.363 C 154.430 41.670,154.218 41.538,154.272 42.628 M168.821 44.885 C 168.604 45.714,168.769 45.757,169.130 44.964 C 169.298 44.597,169.331 44.296,169.205 44.296 C 169.078 44.296,168.906 44.561,168.821 44.885 M155.099 48.032 C 155.099 48.546,155.154 48.756,155.221 48.499 C 155.288 48.242,155.288 47.822,155.221 47.565 C 155.154 47.308,155.099 47.518,155.099 48.032 M165.177 52.919 C 165.177 52.965,165.567 53.355,166.044 53.786 L 166.911 54.570 166.128 53.702 C 165.397 52.894,165.177 52.713,165.177 52.919 M103.135 55.258 C 101.552 56.455,101.339 56.793,102.824 55.752 C 103.945 54.966,104.556 54.419,104.285 54.444 C 104.240 54.448,103.722 54.814,103.135 55.258 M147.476 54.881 C 147.181 55.176,147.275 55.504,147.654 55.504 C 147.850 55.504,148.010 55.324,148.010 55.103 C 148.010 54.681,147.774 54.583,147.476 54.881 M151.167 56.037 C 152.296 56.325,153.265 56.325,152.368 56.037 C 152.001 55.920,151.401 55.826,151.034 55.829 C 150.435 55.833,150.448 55.854,151.167 56.037 M155.771 56.846 C 156.101 56.979,156.380 57.302,156.392 57.563 C 156.405 57.858,156.465 57.908,156.551 57.696 C 156.732 57.245,156.153 56.567,155.604 56.588 C 155.311 56.599,155.364 56.683,155.771 56.846 M170.601 58.616 C 171.072 59.174,171.072 59.197,170.601 59.319 C 170.209 59.420,170.231 59.451,170.714 59.475 C 171.044 59.492,171.314 59.405,171.314 59.281 C 171.314 59.157,171.044 58.827,170.714 58.547 L 170.113 58.039 170.601 58.616 M156.967 61.107 C 156.967 61.621,157.021 61.831,157.089 61.574 C 157.156 61.318,157.156 60.897,157.089 60.640 C 157.021 60.384,156.967 60.594,156.967 61.107 M90.510 64.469 C 89.602 65.144,88.859 65.752,88.859 65.820 C 88.859 65.939,90.402 64.864,91.795 63.776 C 93.139 62.724,92.112 63.279,90.510 64.469 M42.161 64.121 C 42.161 64.175,42.732 64.609,43.429 65.086 C 44.388 65.742,44.502 65.783,43.896 65.252 C 43.090 64.545,42.161 63.940,42.161 64.121 M84.456 68.867 C 82.873 70.064,82.660 70.402,84.145 69.361 C 85.266 68.575,85.877 68.028,85.606 68.053 C 85.561 68.057,85.043 68.423,84.456 68.867 M49.099 69.192 C 49.099 69.245,49.670 69.679,50.367 70.156 C 51.326 70.812,51.440 70.853,50.834 70.322 C 50.028 69.616,49.099 69.010,49.099 69.192 M81.441 71.034 C 81.052 71.423,81.035 72.043,81.400 72.582 C 81.601 72.878,81.626 72.791,81.499 72.245 C 81.398 71.807,81.462 71.346,81.657 71.111 C 82.051 70.636,81.894 70.580,81.441 71.034 M51.531 73.145 C 51.366 73.617,51.278 74.049,51.336 74.106 C 51.393 74.163,51.574 73.824,51.738 73.353 C 51.903 72.881,51.990 72.448,51.933 72.391 C 51.876 72.334,51.695 72.673,51.531 73.145 M64.977 83.010 C 63.394 84.207,63.181 84.545,64.665 83.504 C 65.786 82.718,66.397 82.171,66.126 82.196 C 66.081 82.200,65.564 82.566,64.977 83.010 M67.576 82.610 C 67.672 82.765,68.507 83.412,69.432 84.048 C 70.357 84.684,70.934 85.026,70.714 84.808 C 70.094 84.195,67.381 82.294,67.576 82.610 M158.532 83.416 C 158.379 83.971,158.301 84.474,158.360 84.533 C 158.419 84.592,158.592 84.185,158.746 83.629 C 158.899 83.073,158.977 82.570,158.918 82.512 C 158.859 82.453,158.686 82.860,158.532 83.416 M85.276 84.590 C 85.375 84.957,85.566 85.437,85.702 85.657 C 85.874 85.935,85.895 85.854,85.771 85.390 C 85.673 85.023,85.481 84.543,85.345 84.323 C 85.173 84.045,85.152 84.126,85.276 84.590 M161.053 84.923 C 161.152 85.254,161.344 85.641,161.478 85.784 C 161.612 85.928,161.587 85.658,161.422 85.184 C 161.084 84.215,160.772 83.994,161.053 84.923 M59.544 86.975 C 58.758 87.544,57.978 88.161,57.810 88.347 C 57.475 88.718,60.202 86.852,60.831 86.280 C 61.546 85.629,60.991 85.929,59.544 86.975 M86.077 86.991 C 86.175 87.358,86.367 87.839,86.503 88.059 C 86.675 88.337,86.696 88.255,86.572 87.792 C 86.473 87.425,86.282 86.945,86.146 86.724 C 85.974 86.446,85.953 86.528,86.077 86.991 M161.853 87.058 C 161.953 87.388,162.144 87.776,162.279 87.919 C 162.413 88.063,162.388 87.792,162.223 87.319 C 161.885 86.349,161.573 86.129,161.853 87.058 M73.649 87.039 C 74.269 87.653,76.982 89.554,76.787 89.238 C 76.691 89.083,75.856 88.436,74.931 87.800 C 74.006 87.164,73.429 86.822,73.649 87.039 M169.374 89.052 C 169.847 89.111,170.688 89.112,171.242 89.054 C 171.795 88.996,171.408 88.948,170.380 88.947 C 169.353 88.946,168.900 88.993,169.374 89.052 M152.969 89.589 C 153.666 89.644,154.807 89.644,155.504 89.589 C 156.201 89.534,155.630 89.489,154.236 89.489 C 152.842 89.489,152.272 89.534,152.969 89.589 M147.740 89.860 C 147.672 89.970,148.175 90.025,148.858 89.982 C 150.976 89.849,151.240 89.734,149.515 89.696 C 148.607 89.676,147.808 89.750,147.740 89.860 M45.684 91.181 C 45.289 92.467,45.480 92.659,45.897 91.394 C 46.073 90.861,46.165 90.373,46.102 90.309 C 46.039 90.246,45.850 90.638,45.684 91.181 M168.957 91.377 C 166.793 93.122,166.400 93.656,168.444 92.074 C 169.975 90.889,170.787 90.140,170.463 90.212 C 170.417 90.222,169.740 90.746,168.957 91.377 M52.888 91.818 C 52.272 92.271,51.768 92.698,51.768 92.768 C 51.768 92.838,52.308 92.507,52.969 92.033 C 54.048 91.257,54.332 90.994,54.089 90.994 C 54.044 90.994,53.504 91.365,52.888 91.818 M81.121 92.425 C 81.121 92.499,81.481 92.815,81.921 93.129 C 82.362 93.442,82.722 93.639,82.722 93.565 C 82.722 93.492,82.362 93.175,81.921 92.862 C 81.481 92.548,81.121 92.352,81.121 92.425 M44.860 93.692 C 44.695 94.164,44.607 94.596,44.664 94.653 C 44.721 94.710,44.903 94.371,45.067 93.900 C 45.231 93.428,45.319 92.996,45.262 92.938 C 45.205 92.881,45.024 93.221,44.860 93.692 M154.674 94.730 C 154.842 94.950,155.038 95.370,155.110 95.664 C 155.235 96.171,155.243 96.169,155.273 95.630 C 155.290 95.317,155.093 94.897,154.837 94.696 C 154.430 94.377,154.409 94.382,154.674 94.730 M47.017 96.087 C 46.401 96.540,45.897 96.968,45.897 97.038 C 45.897 97.107,46.438 96.777,47.098 96.302 C 48.178 95.527,48.462 95.264,48.218 95.264 C 48.174 95.264,47.633 95.634,47.017 96.087 M86.191 96.143 C 86.191 96.197,86.761 96.631,87.458 97.107 C 88.418 97.764,88.531 97.804,87.925 97.273 C 87.120 96.567,86.191 95.962,86.191 96.143 M89.563 97.799 C 89.739 98.557,89.722 98.578,89.237 98.199 C 88.764 97.829,88.753 97.834,89.092 98.266 C 89.796 99.164,90.305 98.370,89.648 97.398 C 89.451 97.107,89.427 97.216,89.563 97.799 M154.263 98.359 C 154.109 98.915,154.032 99.418,154.091 99.476 C 154.149 99.535,154.323 99.128,154.476 98.572 C 154.630 98.017,154.707 97.514,154.649 97.455 C 154.590 97.396,154.416 97.803,154.263 98.359 M159.573 98.754 C 159.262 98.972,159.309 98.996,159.786 98.861 C 160.161 98.756,160.681 98.859,161.120 99.126 L 161.841 99.565 161.211 99.015 C 160.506 98.400,160.158 98.345,159.573 98.754 M166.931 100.867 C 167.029 101.234,167.221 101.714,167.357 101.935 C 167.528 102.213,167.549 102.131,167.425 101.668 C 167.327 101.301,167.136 100.821,167.000 100.600 C 166.828 100.322,166.807 100.404,166.931 100.867 M164.910 101.657 C 165.277 101.965,165.817 102.341,166.111 102.494 C 166.475 102.683,166.433 102.593,165.977 102.212 C 165.610 101.904,165.070 101.528,164.777 101.375 C 164.412 101.186,164.455 101.276,164.910 101.657 M154.370 102.898 L 153.302 103.853 154.436 103.005 C 155.412 102.275,155.764 101.923,155.504 101.939 C 155.467 101.941,154.957 102.372,154.370 102.898 M136.531 109.484 L 135.504 110.874 136.583 109.673 L 137.662 108.472 137.755 111.007 L 137.848 113.542 137.903 110.807 C 137.967 107.663,137.915 107.613,136.531 109.484 M134.711 111.741 C 133.500 113.175,132.259 114.824,132.503 114.678 C 132.823 114.486,135.383 111.274,135.216 111.274 C 135.155 111.274,134.928 111.484,134.711 111.741 M123.288 112.155 C 123.291 112.331,123.546 112.775,123.853 113.142 L 124.413 113.809 123.951 113.039 L 123.489 112.269 124.186 112.444 C 125.138 112.683,125.068 112.458,124.083 112.115 C 123.483 111.906,123.284 111.916,123.288 112.155 M137.537 115.522 C 137.554 117.044,137.651 117.527,137.959 117.611 C 138.241 117.687,138.264 117.652,138.039 117.491 C 137.862 117.365,137.674 116.432,137.618 115.403 L 137.516 113.542 137.537 115.522 M145.439 120.808 C 145.089 121.202,145.099 121.229,145.528 121.065 C 145.792 120.963,146.058 120.881,146.119 120.881 C 146.181 120.881,146.231 120.761,146.231 120.614 C 146.231 120.221,145.885 120.306,145.439 120.808 M125.797 122.889 C 125.253 123.553,124.855 124.137,124.912 124.186 C 124.970 124.236,125.469 123.693,126.021 122.979 C 127.288 121.343,127.120 121.275,125.797 122.889 M123.949 126.751 C 123.613 126.896,123.564 126.981,123.816 126.981 C 124.036 126.981,124.456 126.877,124.750 126.751 C 125.086 126.607,125.136 126.522,124.883 126.522 C 124.663 126.522,124.243 126.625,123.949 126.751 M136.983 128.486 C 136.984 129.660,137.031 130.107,137.087 129.479 C 137.143 128.852,137.143 127.891,137.085 127.345 C 137.028 126.798,136.982 127.312,136.983 128.486 M135.126 130.354 C 135.363 130.720,135.751 131.321,135.988 131.688 C 136.576 132.599,136.897 132.525,136.860 131.488 C 136.829 130.632,136.826 130.631,136.660 131.357 L 136.491 132.094 135.733 130.890 C 135.316 130.228,134.912 129.686,134.835 129.686 C 134.758 129.686,134.889 129.987,135.126 130.354 " stroke="none" fill="#f39304" fill-rule="evenodd"></path><path id="path4" d="M155.304 42.295 C 155.801 42.809,156.269 43.229,156.342 43.229 C 156.416 43.229,156.068 42.809,155.570 42.295 C 155.073 41.781,154.605 41.361,154.532 41.361 C 154.458 41.361,154.806 41.781,155.304 42.295 M138.287 108.606 C 138.287 109.119,138.342 109.330,138.409 109.073 C 138.477 108.816,138.477 108.396,138.409 108.139 C 138.342 107.882,138.287 108.092,138.287 108.606 M137.234 128.486 C 137.236 129.219,137.288 129.488,137.350 129.082 C 137.411 128.677,137.409 128.076,137.346 127.748 C 137.283 127.420,137.232 127.752,137.234 128.486 " stroke="none" fill="#e42e04" fill-rule="evenodd"></path><path id="path5" d="M138.302 19.346 C 138.304 20.080,138.356 20.349,138.417 19.943 C 138.478 19.537,138.477 18.937,138.413 18.609 C 138.350 18.281,138.300 18.612,138.302 19.346 M136.686 37.892 C 136.686 38.406,136.741 38.616,136.808 38.359 C 136.875 38.102,136.875 37.682,136.808 37.425 C 136.741 37.168,136.686 37.378,136.686 37.892 M157.572 44.830 C 158.295 45.564,158.946 46.164,159.019 46.164 C 159.093 46.164,158.561 45.564,157.839 44.830 C 157.116 44.096,156.464 43.496,156.391 43.496 C 156.318 43.496,156.849 44.096,157.572 44.830 M166.644 54.169 C 167.367 54.903,168.019 55.504,168.092 55.504 C 168.165 55.504,167.634 54.903,166.911 54.169 C 166.188 53.436,165.537 52.835,165.464 52.835 C 165.390 52.835,165.922 53.436,166.644 54.169 M148.232 55.771 C 148.526 55.897,148.946 56.000,149.166 56.000 C 149.418 56.000,149.369 55.915,149.033 55.771 C 148.739 55.644,148.319 55.541,148.099 55.541 C 147.846 55.541,147.896 55.626,148.232 55.771 M152.902 56.559 C 153.122 56.708,153.532 56.832,153.814 56.834 C 154.496 56.839,154.283 56.687,153.302 56.467 C 152.718 56.336,152.610 56.361,152.902 56.559 M162.526 87.941 C 162.476 88.723,163.206 89.161,164.386 89.057 L 165.577 88.952 164.350 88.906 C 163.368 88.869,163.066 88.740,162.834 88.259 C 162.675 87.929,162.536 87.786,162.526 87.941 M168.050 88.786 C 168.530 88.845,169.250 88.844,169.651 88.783 C 170.052 88.722,169.660 88.674,168.779 88.675 C 167.899 88.677,167.571 88.726,168.050 88.786 M147.298 89.777 C 147.298 89.989,147.437 90.248,147.606 90.352 C 147.807 90.476,147.841 90.425,147.706 90.205 C 147.584 90.008,147.650 89.770,147.864 89.634 C 148.155 89.450,148.135 89.400,147.765 89.397 C 147.508 89.395,147.298 89.566,147.298 89.777 M137.487 124.350 C 137.487 124.863,137.542 125.073,137.609 124.817 C 137.676 124.560,137.676 124.139,137.609 123.883 C 137.542 123.626,137.487 123.836,137.487 124.350 M122.882 127.285 L 122.081 127.489 122.799 127.520 C 123.194 127.537,123.592 127.432,123.682 127.285 C 123.773 127.138,123.810 127.032,123.765 127.050 C 123.720 127.067,123.322 127.173,122.882 127.285 " stroke="none" fill="#e44304" fill-rule="evenodd"></path><path id="path6" d="" stroke="none" fill="#dc2c04" fill-rule="evenodd"></path><path id="path7" d="M0.000 133.422 L 0.000 266.845 200.000 266.845 L 400.000 266.845 400.000 133.422 L 400.000 0.000 200.000 0.000 L 0.000 0.000 0.000 133.422 M138.596 17.945 C 138.496 19.890,138.311 21.521,138.186 21.570 C 137.813 21.716,137.912 24.015,138.292 24.024 C 138.476 24.029,139.226 24.328,139.960 24.689 C 140.694 25.050,141.401 25.346,141.532 25.348 C 141.663 25.349,142.323 25.603,142.999 25.912 C 146.874 27.683,147.392 28.102,146.042 28.369 C 145.632 28.451,144.216 28.763,142.895 29.063 C 141.574 29.363,139.817 29.742,138.991 29.904 L 137.488 30.199 137.329 31.444 C 137.242 32.128,137.100 34.009,137.014 35.624 C 136.827 39.137,136.718 39.761,136.286 39.757 C 135.950 39.753,133.155 35.256,133.155 34.719 C 133.155 34.556,133.065 34.423,132.955 34.423 C 132.845 34.423,132.418 33.822,132.006 33.088 C 131.295 31.822,130.494 31.362,130.103 31.995 C 130.021 32.127,129.233 32.319,128.352 32.422 C 127.471 32.524,126.690 32.705,126.617 32.823 C 126.544 32.942,125.853 33.117,125.083 33.213 C 124.313 33.309,123.346 33.518,122.934 33.677 C 121.813 34.110,121.472 33.606,122.258 32.678 C 123.565 31.135,126.825 27.384,127.315 26.858 C 127.596 26.556,127.765 26.183,127.689 26.029 C 127.614 25.876,127.478 25.540,127.387 25.284 C 127.297 25.027,127.117 24.817,126.987 24.817 C 126.857 24.817,126.751 24.664,126.751 24.477 C 126.751 24.290,126.331 23.499,125.817 22.719 C 125.304 21.939,124.883 21.247,124.883 21.180 C 124.883 21.114,124.468 20.444,123.961 19.691 C 122.682 17.791,123.120 17.367,125.284 18.412 C 125.871 18.696,126.501 18.932,126.684 18.937 C 126.868 18.942,127.018 19.066,127.018 19.213 C 127.018 19.360,127.210 19.480,127.445 19.480 C 127.679 19.480,128.250 19.651,128.712 19.861 C 129.175 20.070,130.140 20.501,130.858 20.818 L 132.163 21.395 132.788 20.638 C 133.131 20.221,133.504 19.758,133.617 19.608 C 134.165 18.883,137.084 15.539,137.632 15.010 C 138.714 13.964,138.790 14.196,138.596 17.945 M67.620 28.686 C 67.871 29.566,68.174 30.471,68.294 30.696 C 68.413 30.921,68.600 31.521,68.709 32.030 C 68.818 32.539,69.000 33.075,69.113 33.222 C 69.226 33.369,69.406 33.909,69.513 34.423 C 69.620 34.937,69.800 35.477,69.913 35.624 C 70.026 35.771,70.208 36.307,70.317 36.816 C 70.426 37.325,70.612 37.925,70.730 38.150 C 71.098 38.849,73.122 45.471,73.119 45.964 C 73.117 46.221,73.222 46.431,73.353 46.431 C 73.483 46.431,73.671 46.866,73.771 47.398 C 73.871 47.930,74.056 48.560,74.182 48.799 C 74.308 49.037,74.750 50.314,75.165 51.634 L 75.920 54.036 90.395 54.105 C 98.407 54.143,104.870 54.278,104.870 54.407 C 104.870 54.654,104.051 55.311,101.668 56.976 C 100.861 57.540,100.065 58.130,99.899 58.287 C 99.734 58.444,99.334 58.753,99.011 58.973 C 98.688 59.193,97.623 59.951,96.644 60.659 C 95.664 61.366,94.623 62.116,94.330 62.325 C 94.036 62.535,92.533 63.638,90.990 64.776 C 88.399 66.686,86.469 68.051,85.424 68.712 C 85.192 68.859,84.879 69.111,84.729 69.272 C 84.519 69.498,82.209 71.136,81.696 71.424 C 81.579 71.490,83.214 76.833,83.537 77.440 C 83.670 77.690,83.857 78.381,83.952 78.974 C 84.047 79.568,84.218 80.053,84.334 80.053 C 84.449 80.053,84.626 80.544,84.727 81.143 C 84.828 81.742,85.078 82.552,85.282 82.944 C 85.487 83.335,85.655 83.919,85.655 84.240 C 85.656 84.562,85.764 84.891,85.894 84.971 C 86.024 85.052,86.208 85.534,86.304 86.043 C 86.399 86.552,86.652 87.304,86.866 87.714 C 87.080 88.124,87.256 88.606,87.257 88.785 C 87.259 89.188,89.082 94.967,89.395 95.564 C 89.521 95.803,89.705 96.435,89.805 96.968 C 89.905 97.501,90.094 98.004,90.224 98.084 C 90.585 98.307,90.506 99.267,90.127 99.261 C 89.943 99.258,88.932 98.627,87.879 97.860 C 86.826 97.092,85.701 96.284,85.378 96.064 C 85.055 95.844,84.656 95.536,84.490 95.380 C 84.325 95.224,82.989 94.241,81.521 93.195 C 80.053 92.150,78.727 91.184,78.573 91.050 C 78.419 90.916,77.638 90.348,76.838 89.787 C 76.038 89.226,74.406 88.037,73.212 87.145 C 72.018 86.253,70.775 85.344,70.451 85.123 C 70.127 84.903,69.153 84.201,68.287 83.563 L 66.711 82.403 65.136 83.563 C 64.269 84.201,63.299 84.903,62.981 85.123 C 62.662 85.344,62.200 85.678,61.955 85.866 C 61.709 86.054,60.667 86.813,59.640 87.552 C 58.612 88.291,57.492 89.097,57.150 89.344 C 56.808 89.591,56.306 89.973,56.035 90.193 C 55.765 90.414,54.494 91.314,53.211 92.195 C 51.929 93.075,50.681 93.976,50.438 94.196 C 49.668 94.894,48.330 95.797,48.065 95.797 C 47.925 95.797,47.770 95.902,47.721 96.030 C 47.452 96.733,42.962 99.663,42.962 99.135 C 42.962 98.715,43.594 96.436,43.777 96.197 C 43.890 96.051,44.066 95.479,44.169 94.927 C 44.272 94.375,44.453 93.864,44.570 93.792 C 44.687 93.719,44.864 93.181,44.963 92.595 C 45.062 92.010,45.242 91.469,45.364 91.394 C 45.485 91.319,45.665 90.779,45.764 90.193 C 45.863 89.608,46.043 89.068,46.164 88.993 C 46.285 88.918,46.469 88.347,46.571 87.724 C 46.674 87.101,46.851 86.471,46.964 86.324 C 47.077 86.177,47.259 85.641,47.368 85.132 C 47.477 84.623,47.662 84.023,47.780 83.798 C 47.897 83.573,48.309 82.308,48.695 80.987 C 49.081 79.666,49.495 78.402,49.614 78.177 C 49.734 77.952,49.921 77.351,50.030 76.842 C 50.139 76.334,50.321 75.797,50.434 75.650 C 50.546 75.504,50.727 74.963,50.834 74.450 C 50.941 73.936,51.126 73.394,51.245 73.246 C 52.277 71.955,52.082 71.766,42.702 64.977 C 41.079 63.803,38.445 61.881,36.848 60.707 C 35.251 59.533,33.683 58.392,33.363 58.172 C 33.043 57.952,32.581 57.620,32.335 57.434 C 32.089 57.248,31.137 56.545,30.220 55.873 C 29.303 55.201,28.552 54.542,28.552 54.410 C 28.552 54.270,34.583 54.169,42.970 54.169 C 56.467 54.169,57.398 54.140,57.538 53.702 C 57.620 53.446,57.783 52.995,57.901 52.702 C 58.020 52.408,58.617 50.547,59.229 48.566 C 59.842 46.584,60.439 44.779,60.558 44.554 C 60.676 44.329,60.862 43.729,60.971 43.220 C 61.080 42.711,61.261 42.175,61.374 42.028 C 61.487 41.881,61.667 41.341,61.775 40.827 C 61.882 40.314,62.062 39.773,62.175 39.626 C 62.289 39.480,62.465 38.849,62.568 38.225 C 62.671 37.602,62.854 37.091,62.975 37.091 C 63.096 37.091,63.278 36.601,63.379 36.002 C 63.480 35.403,63.730 34.593,63.935 34.201 C 64.139 33.809,64.308 33.249,64.310 32.955 C 64.311 32.662,64.492 32.078,64.711 31.657 C 64.931 31.237,65.111 30.697,65.112 30.456 C 65.113 30.216,65.293 29.676,65.512 29.256 C 65.731 28.835,65.911 28.333,65.911 28.139 C 65.911 25.918,66.924 26.242,67.620 28.686 M157.186 44.068 C 158.572 45.556,159.968 47.055,160.288 47.397 C 160.832 47.978,160.920 47.994,161.623 47.627 C 162.036 47.411,162.525 47.234,162.708 47.233 C 162.892 47.232,163.042 47.121,163.042 46.986 C 163.042 46.851,163.402 46.661,163.843 46.564 C 164.283 46.468,164.643 46.288,164.643 46.164 C 164.643 46.041,165.003 45.861,165.444 45.764 C 165.884 45.667,166.244 45.477,166.244 45.342 C 166.244 45.207,166.396 45.097,166.582 45.097 C 166.767 45.097,167.367 44.857,167.915 44.563 C 170.397 43.233,170.286 43.674,166.290 51.024 L 165.461 52.549 167.825 55.027 C 172.249 59.666,172.181 59.582,171.730 59.834 C 171.498 59.963,171.117 59.956,170.851 59.817 C 170.592 59.683,169.540 59.486,168.512 59.380 C 167.485 59.274,166.524 59.092,166.378 58.976 C 166.231 58.860,165.270 58.683,164.243 58.583 L 162.375 58.400 161.308 60.488 C 160.720 61.636,160.178 62.635,160.102 62.708 C 160.027 62.782,159.582 63.637,159.115 64.609 C 157.705 67.544,157.352 67.388,156.931 63.642 C 156.782 62.322,156.518 60.315,156.343 59.183 L 156.025 57.126 154.797 56.965 C 154.122 56.876,153.029 56.688,152.368 56.547 C 151.708 56.405,150.207 56.143,149.033 55.963 C 145.778 55.466,145.899 55.330,152.435 52.154 L 155.037 50.889 155.037 49.476 C 155.037 48.699,154.926 47.995,154.791 47.912 C 154.656 47.828,154.460 46.558,154.356 45.088 C 154.252 43.619,154.062 42.352,153.935 42.273 C 153.807 42.194,153.702 41.957,153.702 41.745 C 153.702 40.795,154.850 41.560,157.186 44.068 M159.840 80.454 C 159.840 80.674,159.960 80.854,160.107 80.854 C 160.254 80.854,160.374 81.046,160.374 81.281 C 160.374 81.515,160.540 82.086,160.743 82.548 C 160.946 83.011,161.561 84.619,162.110 86.121 L 163.107 88.854 167.878 88.681 C 172.629 88.509,173.242 88.606,172.315 89.385 C 172.131 89.539,171.561 90.023,171.047 90.459 C 170.534 90.895,170.028 91.254,169.924 91.257 C 169.819 91.259,169.519 91.480,169.257 91.747 C 168.994 92.014,168.029 92.802,167.111 93.497 C 165.342 94.838,165.229 95.094,165.814 96.424 C 166.017 96.886,166.451 98.045,166.778 98.999 C 167.105 99.953,167.540 101.114,167.745 101.580 C 168.311 102.868,168.500 104.069,168.135 104.069 C 167.794 104.069,166.164 102.989,166.022 102.668 C 165.973 102.558,165.812 102.468,165.664 102.468 C 165.516 102.468,165.119 102.258,164.783 102.001 C 163.623 101.116,160.384 98.999,160.188 98.999 C 160.112 98.999,159.251 99.629,158.277 100.398 C 157.302 101.168,156.350 101.918,156.162 102.066 C 155.973 102.214,155.673 102.457,155.494 102.606 C 153.521 104.253,152.368 104.945,152.368 104.483 C 152.368 104.020,153.005 101.483,153.175 101.268 C 153.291 101.121,153.471 100.429,153.575 99.730 C 153.679 99.031,153.860 98.400,153.977 98.328 C 154.094 98.255,154.274 97.686,154.377 97.063 C 154.479 96.440,154.661 95.809,154.780 95.660 C 154.961 95.434,152.189 93.294,151.189 92.888 C 151.044 92.829,150.799 92.675,150.646 92.545 C 150.492 92.415,149.603 91.761,148.670 91.093 C 146.494 89.535,146.606 89.470,151.701 89.326 C 156.753 89.182,156.722 89.192,157.093 87.583 C 157.253 86.891,157.585 85.664,157.830 84.857 C 158.075 84.049,158.390 82.909,158.529 82.322 C 158.953 80.535,159.840 79.270,159.840 80.454 M138.270 109.701 C 138.099 110.442,137.959 112.397,137.959 114.045 L 137.959 117.042 138.959 117.462 C 139.510 117.694,140.921 118.217,142.095 118.626 C 143.269 119.035,144.350 119.456,144.496 119.561 C 144.643 119.666,145.152 119.835,145.627 119.936 C 148.119 120.469,146.573 121.346,141.027 122.546 C 140.294 122.705,139.633 122.925,139.559 123.035 C 139.485 123.144,139.065 123.275,138.625 123.325 L 137.825 123.416 137.443 128.152 C 137.183 131.380,136.962 132.889,136.749 132.889 C 136.421 132.889,133.956 129.358,133.956 128.889 C 133.956 128.741,133.863 128.619,133.750 128.619 C 133.637 128.619,133.249 128.079,132.889 127.418 C 132.528 126.758,132.148 126.217,132.045 126.217 C 131.942 126.217,131.778 125.969,131.682 125.664 C 131.558 125.276,131.375 125.167,131.063 125.299 C 130.629 125.483,130.108 125.628,125.817 126.760 C 121.631 127.865,121.397 127.748,123.304 125.500 C 123.903 124.794,124.683 123.874,125.038 123.455 C 125.393 123.036,125.684 122.616,125.685 122.521 C 125.686 122.426,126.024 121.988,126.436 121.548 C 127.805 120.085,127.947 119.194,126.927 118.448 C 126.804 118.358,126.564 118.034,126.393 117.727 C 126.223 117.421,125.335 115.999,124.419 114.567 C 122.731 111.930,122.578 111.126,123.877 111.724 C 124.210 111.878,125.203 112.272,126.084 112.601 C 126.965 112.929,128.064 113.365,128.526 113.570 C 128.988 113.775,129.495 113.943,129.651 113.943 C 129.807 113.943,130.357 114.144,130.871 114.389 C 131.916 114.887,132.126 114.752,133.670 112.584 C 134.027 112.084,134.530 111.434,134.789 111.141 C 135.047 110.847,135.888 109.836,136.657 108.893 C 138.313 106.863,138.861 107.137,138.270 109.701 " stroke="none" fill="#e02404" fill-rule="evenodd"></path><path id="path8" d="M0.000 133.422 L 0.000 266.845 200.000 266.845 L 400.000 266.845 400.000 133.422 L 400.000 0.000 200.000 0.000 L 0.000 0.000 0.000 133.422 M138.596 17.945 C 138.496 19.890,138.311 21.521,138.186 21.570 C 137.813 21.716,137.912 24.015,138.292 24.024 C 138.476 24.029,139.226 24.328,139.960 24.689 C 140.694 25.050,141.401 25.346,141.532 25.348 C 141.663 25.349,142.323 25.603,142.999 25.912 C 146.874 27.683,147.392 28.102,146.042 28.369 C 145.632 28.451,144.216 28.763,142.895 29.063 C 141.574 29.363,139.817 29.742,138.991 29.904 L 137.488 30.199 137.329 31.444 C 137.242 32.128,137.100 34.009,137.014 35.624 C 136.827 39.137,136.718 39.761,136.286 39.757 C 135.950 39.753,133.155 35.256,133.155 34.719 C 133.155 34.556,133.065 34.423,132.955 34.423 C 132.845 34.423,132.418 33.822,132.006 33.088 C 131.295 31.822,130.494 31.362,130.103 31.995 C 130.021 32.127,129.233 32.319,128.352 32.422 C 127.471 32.524,126.690 32.705,126.617 32.823 C 126.544 32.942,125.853 33.117,125.083 33.213 C 124.313 33.309,123.346 33.518,122.934 33.677 C 121.813 34.110,121.472 33.606,122.258 32.678 C 123.565 31.135,126.825 27.384,127.315 26.858 C 127.596 26.556,127.765 26.183,127.689 26.029 C 127.614 25.876,127.478 25.540,127.387 25.284 C 127.297 25.027,127.117 24.817,126.987 24.817 C 126.857 24.817,126.751 24.664,126.751 24.477 C 126.751 24.290,126.331 23.499,125.817 22.719 C 125.304 21.939,124.883 21.247,124.883 21.180 C 124.883 21.114,124.468 20.444,123.961 19.691 C 122.682 17.791,123.120 17.367,125.284 18.412 C 125.871 18.696,126.501 18.932,126.684 18.937 C 126.868 18.942,127.018 19.066,127.018 19.213 C 127.018 19.360,127.210 19.480,127.445 19.480 C 127.679 19.480,128.250 19.651,128.712 19.861 C 129.175 20.070,130.140 20.501,130.858 20.818 L 132.163 21.395 132.788 20.638 C 133.131 20.221,133.504 19.758,133.617 19.608 C 134.165 18.883,137.084 15.539,137.632 15.010 C 138.714 13.964,138.790 14.196,138.596 17.945 M67.620 28.686 C 67.871 29.566,68.174 30.471,68.294 30.696 C 68.413 30.921,68.600 31.521,68.709 32.030 C 68.818 32.539,69.000 33.075,69.113 33.222 C 69.226 33.369,69.406 33.909,69.513 34.423 C 69.620 34.937,69.800 35.477,69.913 35.624 C 70.026 35.771,70.208 36.307,70.317 36.816 C 70.426 37.325,70.612 37.925,70.730 38.150 C 71.098 38.849,73.122 45.471,73.119 45.964 C 73.117 46.221,73.222 46.431,73.353 46.431 C 73.483 46.431,73.671 46.866,73.771 47.398 C 73.871 47.930,74.056 48.560,74.182 48.799 C 74.308 49.037,74.750 50.314,75.165 51.634 L 75.920 54.036 90.395 54.105 C 98.407 54.143,104.870 54.278,104.870 54.407 C 104.870 54.654,104.051 55.311,101.668 56.976 C 100.861 57.540,100.065 58.130,99.899 58.287 C 99.734 58.444,99.334 58.753,99.011 58.973 C 98.688 59.193,97.623 59.951,96.644 60.659 C 95.664 61.366,94.623 62.116,94.330 62.325 C 94.036 62.535,92.533 63.638,90.990 64.776 C 88.399 66.686,86.469 68.051,85.424 68.712 C 85.192 68.859,84.879 69.111,84.729 69.272 C 84.519 69.498,82.209 71.136,81.696 71.424 C 81.579 71.490,83.214 76.833,83.537 77.440 C 83.670 77.690,83.857 78.381,83.952 78.974 C 84.047 79.568,84.218 80.053,84.334 80.053 C 84.449 80.053,84.626 80.544,84.727 81.143 C 84.828 81.742,85.078 82.552,85.282 82.944 C 85.487 83.335,85.655 83.919,85.655 84.240 C 85.656 84.562,85.764 84.891,85.894 84.971 C 86.024 85.052,86.208 85.534,86.304 86.043 C 86.399 86.552,86.652 87.304,86.866 87.714 C 87.080 88.124,87.256 88.606,87.257 88.785 C 87.259 89.188,89.082 94.967,89.395 95.564 C 89.521 95.803,89.705 96.435,89.805 96.968 C 89.905 97.501,90.094 98.004,90.224 98.084 C 90.585 98.307,90.506 99.267,90.127 99.261 C 89.943 99.258,88.932 98.627,87.879 97.860 C 86.826 97.092,85.701 96.284,85.378 96.064 C 85.055 95.844,84.656 95.536,84.490 95.380 C 84.325 95.224,82.989 94.241,81.521 93.195 C 80.053 92.150,78.727 91.184,78.573 91.050 C 78.419 90.916,77.638 90.348,76.838 89.787 C 76.038 89.226,74.406 88.037,73.212 87.145 C 72.018 86.253,70.775 85.344,70.451 85.123 C 70.127 84.903,69.153 84.201,68.287 83.563 L 66.711 82.403 65.136 83.563 C 64.269 84.201,63.299 84.903,62.981 85.123 C 62.662 85.344,62.200 85.678,61.955 85.866 C 61.709 86.054,60.667 86.813,59.640 87.552 C 58.612 88.291,57.492 89.097,57.150 89.344 C 56.808 89.591,56.306 89.973,56.035 90.193 C 55.765 90.414,54.494 91.314,53.211 92.195 C 51.929 93.075,50.681 93.976,50.438 94.196 C 49.668 94.894,48.330 95.797,48.065 95.797 C 47.925 95.797,47.770 95.902,47.721 96.030 C 47.452 96.733,42.962 99.663,42.962 99.135 C 42.962 98.715,43.594 96.436,43.777 96.197 C 43.890 96.051,44.066 95.479,44.169 94.927 C 44.272 94.375,44.453 93.864,44.570 93.792 C 44.687 93.719,44.864 93.181,44.963 92.595 C 45.062 92.010,45.242 91.469,45.364 91.394 C 45.485 91.319,45.665 90.779,45.764 90.193 C 45.863 89.608,46.043 89.068,46.164 88.993 C 46.285 88.918,46.469 88.347,46.571 87.724 C 46.674 87.101,46.851 86.471,46.964 86.324 C 47.077 86.177,47.259 85.641,47.368 85.132 C 47.477 84.623,47.662 84.023,47.780 83.798 C 47.897 83.573,48.309 82.308,48.695 80.987 C 49.081 79.666,49.495 78.402,49.614 78.177 C 49.734 77.952,49.921 77.351,50.030 76.842 C 50.139 76.334,50.321 75.797,50.434 75.650 C 50.546 75.504,50.727 74.963,50.834 74.450 C 50.941 73.936,51.126 73.394,51.245 73.246 C 52.277 71.955,52.082 71.766,42.702 64.977 C 41.079 63.803,38.445 61.881,36.848 60.707 C 35.251 59.533,33.683 58.392,33.363 58.172 C 33.043 57.952,32.581 57.620,32.335 57.434 C 32.089 57.248,31.137 56.545,30.220 55.873 C 29.303 55.201,28.552 54.542,28.552 54.410 C 28.552 54.270,34.583 54.169,42.970 54.169 C 56.467 54.169,57.398 54.140,57.538 53.702 C 57.620 53.446,57.783 52.995,57.901 52.702 C 58.020 52.408,58.617 50.547,59.229 48.566 C 59.842 46.584,60.439 44.779,60.558 44.554 C 60.676 44.329,60.862 43.729,60.971 43.220 C 61.080 42.711,61.261 42.175,61.374 42.028 C 61.487 41.881,61.667 41.341,61.775 40.827 C 61.882 40.314,62.062 39.773,62.175 39.626 C 62.289 39.480,62.465 38.849,62.568 38.225 C 62.671 37.602,62.854 37.091,62.975 37.091 C 63.096 37.091,63.278 36.601,63.379 36.002 C 63.480 35.403,63.730 34.593,63.935 34.201 C 64.139 33.809,64.308 33.249,64.310 32.955 C 64.311 32.662,64.492 32.078,64.711 31.657 C 64.931 31.237,65.111 30.697,65.112 30.456 C 65.113 30.216,65.293 29.676,65.512 29.256 C 65.731 28.835,65.911 28.333,65.911 28.139 C 65.911 25.918,66.924 26.242,67.620 28.686 M157.186 44.068 C 158.572 45.556,159.968 47.055,160.288 47.397 C 160.832 47.978,160.920 47.994,161.623 47.627 C 162.036 47.411,162.525 47.234,162.708 47.233 C 162.892 47.232,163.042 47.121,163.042 46.986 C 163.042 46.851,163.402 46.661,163.843 46.564 C 164.283 46.468,164.643 46.288,164.643 46.164 C 164.643 46.041,165.003 45.861,165.444 45.764 C 165.884 45.667,166.244 45.477,166.244 45.342 C 166.244 45.207,166.396 45.097,166.582 45.097 C 166.767 45.097,167.367 44.857,167.915 44.563 C 170.397 43.233,170.286 43.674,166.290 51.024 L 165.461 52.549 167.825 55.027 C 172.249 59.666,172.181 59.582,171.730 59.834 C 171.498 59.963,171.117 59.956,170.851 59.817 C 170.592 59.683,169.540 59.486,168.512 59.380 C 167.485 59.274,166.524 59.092,166.378 58.976 C 166.231 58.860,165.270 58.683,164.243 58.583 L 162.375 58.400 161.308 60.488 C 160.720 61.636,160.178 62.635,160.102 62.708 C 160.027 62.782,159.582 63.637,159.115 64.609 C 157.705 67.544,157.352 67.388,156.931 63.642 C 156.782 62.322,156.518 60.315,156.343 59.183 L 156.025 57.126 154.797 56.965 C 154.122 56.876,153.029 56.688,152.368 56.547 C 151.708 56.405,150.207 56.143,149.033 55.963 C 145.778 55.466,145.899 55.330,152.435 52.154 L 155.037 50.889 155.037 49.476 C 155.037 48.699,154.926 47.995,154.791 47.912 C 154.656 47.828,154.460 46.558,154.356 45.088 C 154.252 43.619,154.062 42.352,153.935 42.273 C 153.807 42.194,153.702 41.957,153.702 41.745 C 153.702 40.795,154.850 41.560,157.186 44.068 M159.840 80.454 C 159.840 80.674,159.960 80.854,160.107 80.854 C 160.254 80.854,160.374 81.046,160.374 81.281 C 160.374 81.515,160.540 82.086,160.743 82.548 C 160.946 83.011,161.561 84.619,162.110 86.121 L 163.107 88.854 167.878 88.681 C 172.629 88.509,173.242 88.606,172.315 89.385 C 172.131 89.539,171.561 90.023,171.047 90.459 C 170.534 90.895,170.028 91.254,169.924 91.257 C 169.819 91.259,169.519 91.480,169.257 91.747 C 168.994 92.014,168.029 92.802,167.111 93.497 C 165.342 94.838,165.229 95.094,165.814 96.424 C 166.017 96.886,166.451 98.045,166.778 98.999 C 167.105 99.953,167.540 101.114,167.745 101.580 C 168.311 102.868,168.500 104.069,168.135 104.069 C 167.794 104.069,166.164 102.989,166.022 102.668 C 165.973 102.558,165.812 102.468,165.664 102.468 C 165.516 102.468,165.119 102.258,164.783 102.001 C 163.623 101.116,160.384 98.999,160.188 98.999 C 160.112 98.999,159.251 99.629,158.277 100.398 C 157.302 101.168,156.350 101.918,156.162 102.066 C 155.973 102.214,155.673 102.457,155.494 102.606 C 153.521 104.253,152.368 104.945,152.368 104.483 C 152.368 104.020,153.005 101.483,153.175 101.268 C 153.291 101.121,153.471 100.429,153.575 99.730 C 153.679 99.031,153.860 98.400,153.977 98.328 C 154.094 98.255,154.274 97.686,154.377 97.063 C 154.479 96.440,154.661 95.809,154.780 95.660 C 154.961 95.434,152.189 93.294,151.189 92.888 C 151.044 92.829,150.799 92.675,150.646 92.545 C 150.492 92.415,149.603 91.761,148.670 91.093 C 146.494 89.535,146.606 89.470,151.701 89.326 C 156.753 89.182,156.722 89.192,157.093 87.583 C 157.253 86.891,157.585 85.664,157.830 84.857 C 158.075 84.049,158.390 82.909,158.529 82.322 C 158.953 80.535,159.840 79.270,159.840 80.454 M138.270 109.701 C 138.099 110.442,137.959 112.397,137.959 114.045 L 137.959 117.042 138.959 117.462 C 139.510 117.694,140.921 118.217,142.095 118.626 C 143.269 119.035,144.350 119.456,144.496 119.561 C 144.643 119.666,145.152 119.835,145.627 119.936 C 148.119 120.469,146.573 121.346,141.027 122.546 C 140.294 122.705,139.633 122.925,139.559 123.035 C 139.485 123.144,139.065 123.275,138.625 123.325 L 137.825 123.416 137.443 128.152 C 137.183 131.380,136.962 132.889,136.749 132.889 C 136.421 132.889,133.956 129.358,133.956 128.889 C 133.956 128.741,133.863 128.619,133.750 128.619 C 133.637 128.619,133.249 128.079,132.889 127.418 C 132.528 126.758,132.148 126.217,132.045 126.217 C 131.942 126.217,131.778 125.969,131.682 125.664 C 131.558 125.276,131.375 125.167,131.063 125.299 C 130.629 125.483,130.108 125.628,125.817 126.760 C 121.631 127.865,121.397 127.748,123.304 125.500 C 123.903 124.794,124.683 123.874,125.038 123.455 C 125.393 123.036,125.684 122.616,125.685 122.521 C 125.686 122.426,126.024 121.988,126.436 121.548 C 127.805 120.085,127.947 119.194,126.927 118.448 C 126.804 118.358,126.564 118.034,126.393 117.727 C 126.223 117.421,125.335 115.999,124.419 114.567 C 122.731 111.930,122.578 111.126,123.877 111.724 C 124.210 111.878,125.203 112.272,126.084 112.601 C 126.965 112.929,128.064 113.365,128.526 113.570 C 128.988 113.775,129.495 113.943,129.651 113.943 C 129.807 113.943,130.357 114.144,130.871 114.389 C 131.916 114.887,132.126 114.752,133.670 112.584 C 134.027 112.084,134.530 111.434,134.789 111.141 C 135.047 110.847,135.888 109.836,136.657 108.893 C 138.313 106.863,138.861 107.137,138.270 109.701 " stroke="none" fill="#e02404" fill-rule="evenodd"></path></g></svg>
