<svg id="svg" version="1.1" width="200" height="100" viewBox="0 0 400 267.2853828306265" xmlns="http://www.w3.org/2000/svg" xmlns:xlink="http://www.w3.org/1999/xlink" ><g id="svgg"><path id="path0" d="M134.826 1.290 C 134.559 1.460,134.505 28.066,134.559 133.438 L 134.626 265.374 200.468 265.442 L 266.311 265.509 266.244 133.356 L 266.176 1.203 200.668 1.140 C 164.639 1.105,135.010 1.173,134.826 1.290 M0.000 266.711 C 0.000 267.147,0.150 267.380,0.430 267.380 C 0.712 267.380,0.804 267.234,0.697 266.957 C 0.608 266.724,0.535 266.423,0.535 266.288 C 0.535 266.153,0.414 266.043,0.267 266.043 C 0.120 266.043,0.000 266.344,0.000 266.711 " stroke="none" fill="#fbfbfb" fill-rule="evenodd"></path><path id="path1" d="M267.046 1.290 C 267.313 1.460,267.367 28.023,267.313 133.506 L 267.246 265.509 333.021 265.442 L 398.797 265.374 398.797 133.289 L 398.797 1.203 332.754 1.140 C 296.430 1.105,266.862 1.173,267.046 1.290 " stroke="none" fill="#c4242c" fill-rule="evenodd"></path><path id="path2" d="M1.995 1.136 C 1.926 1.320,1.899 60.909,1.937 133.556 L 2.005 265.642 68.035 265.709 C 119.453 265.762,133.994 265.705,133.744 265.455 C 133.276 264.987,133.275 1.591,133.743 1.123 C 133.993 0.873,119.404 0.802,68.093 0.802 C 15.562 0.802,2.096 0.870,1.995 1.136 " stroke="none" fill="#1c8c44" fill-rule="evenodd"></path><path id="path3" d="M1.136 133.222 L 1.203 266.444 67.352 266.511 C 120.013 266.565,133.582 266.510,133.903 266.244 C 134.227 265.975,121.184 265.883,68.156 265.775 L 2.005 265.642 1.938 133.436 C 1.901 60.723,1.968 1.134,2.085 1.016 C 2.536 0.566,398.761 0.404,399.132 0.854 C 399.399 1.178,399.453 27.910,399.399 133.785 C 399.345 239.663,399.399 266.310,399.666 266.310 C 399.933 266.310,400.000 239.501,400.000 133.155 L 400.000 0.000 200.534 0.000 L 1.069 0.000 1.136 133.222 " stroke="none" fill="#36392f" fill-rule="evenodd"></path><path id="path4" d="M0.535 132.848 C 0.535 228.615,0.617 265.931,0.828 266.538 L 1.122 267.380 200.561 267.380 C 377.662 267.380,400.000 267.335,400.000 266.979 C 400.000 266.623,392.475 266.577,333.890 266.574 C 269.001 266.570,266.430 266.546,266.662 265.941 C 266.746 265.721,249.230 265.642,200.393 265.642 C 163.881 265.642,134.056 265.718,134.113 265.812 C 134.571 266.552,132.193 266.577,67.352 266.511 L 1.203 266.444 1.136 133.222 C 1.092 44.719,0.979 0.000,0.802 0.000 C 0.624 0.000,0.535 44.549,0.535 132.848 M134.425 0.719 C 134.168 0.786,133.957 0.923,133.957 1.022 C 133.957 1.145,259.746 1.186,266.711 1.066 C 266.858 1.063,266.798 0.945,266.578 0.802 C 266.179 0.544,135.409 0.462,134.425 0.719 " stroke="none" fill="#948c92" fill-rule="evenodd"></path><path id="path5" d="M0.000 133.021 C 0.000 206.183,0.097 266.043,0.216 266.043 C 0.334 266.043,0.551 266.314,0.698 266.644 C 0.844 266.975,0.897 267.066,0.816 266.845 C 0.735 266.624,0.638 206.494,0.601 133.222 C 0.556 44.896,0.443 0.000,0.267 0.000 C 0.090 0.000,0.000 44.783,0.000 133.021 M134.024 1.247 C 133.757 1.354,133.690 28.019,133.690 133.318 L 133.690 265.254 134.376 265.515 C 134.816 265.682,158.505 265.752,200.619 265.709 L 266.176 265.643 200.401 265.509 L 134.626 265.374 134.559 133.438 C 134.505 28.066,134.559 1.460,134.826 1.290 C 135.210 1.046,134.602 1.013,134.024 1.247 " stroke="none" fill="#8cc4a4" fill-rule="evenodd"></path><path id="path6" d="M266.310 133.308 C 266.310 259.106,266.333 265.543,266.778 265.457 C 267.389 265.339,267.656 1.678,267.046 1.290 C 266.862 1.173,266.621 1.076,266.511 1.074 C 266.400 1.071,266.310 60.577,266.310 133.308 " stroke="none" fill="#d45c64" fill-rule="evenodd"></path><path id="path7" d="M266.422 0.735 C 266.532 0.846,296.361 0.996,332.709 1.070 L 398.797 1.203 398.797 133.289 L 398.797 265.374 332.776 265.508 C 268.269 265.639,264.496 265.690,267.168 266.406 C 267.505 266.496,297.560 266.558,333.957 266.543 C 370.354 266.528,399.953 266.466,399.733 266.406 C 399.377 266.309,399.339 251.384,399.399 133.778 C 399.449 35.890,399.388 1.165,399.166 0.897 C 398.914 0.594,388.041 0.535,332.543 0.535 C 296.066 0.535,266.311 0.625,266.422 0.735 " stroke="none" fill="#742424" fill-rule="evenodd"></path><path id="path8" d="M133.601 1.248 C 133.353 1.495,133.375 265.180,133.623 265.333 C 133.733 265.401,133.824 205.970,133.824 133.263 C 133.824 60.557,133.814 1.070,133.801 1.070 C 133.789 1.070,133.699 1.150,133.601 1.248 " stroke="none" fill="#40c4a4" fill-rule="evenodd"></path></g></svg>
