<svg id="svg" version="1.1" width="200" height="100" viewBox="0 0 400 267.2853828306265" xmlns="http://www.w3.org/2000/svg" xmlns:xlink="http://www.w3.org/1999/xlink" ><g id="svgg"><path id="path0" d="M133.858 1.671 C 133.614 2.582,133.666 265.859,133.911 266.244 C 134.080 266.511,147.425 266.565,199.749 266.511 L 265.374 266.444 265.450 134.626 C 265.491 62.126,265.456 2.416,265.371 1.939 L 265.216 1.070 199.618 1.070 L 134.020 1.070 133.858 1.671 " stroke="none" fill="#44a3c3" fill-rule="evenodd"></path><path id="path1" d="M66.682 43.649 C 66.270 44.563,66.176 45.411,66.176 48.254 C 66.176 51.763,65.883 52.821,64.654 53.750 C 63.825 54.376,63.926 58.048,64.819 59.759 C 66.166 62.341,63.645 64.748,61.841 62.602 C 61.142 61.771,61.083 61.039,61.629 59.990 C 62.188 58.918,62.130 57.133,61.497 55.952 C 61.203 55.403,60.963 54.761,60.963 54.524 C 60.963 54.108,60.171 53.209,59.805 53.209 C 59.706 53.209,59.626 54.419,59.626 55.898 C 59.626 58.553,59.614 58.604,58.703 59.797 C 56.005 63.330,57.557 69.254,62.061 72.616 C 66.903 76.230,75.768 72.684,77.018 66.634 C 77.161 65.941,77.349 65.011,77.434 64.566 C 77.578 63.820,76.884 60.737,76.502 60.428 C 75.460 59.584,75.003 58.344,75.074 56.552 C 75.201 53.325,74.752 52.387,73.954 54.211 C 73.713 54.763,73.338 55.555,73.121 55.971 C 72.597 56.977,72.602 59.538,73.128 60.065 C 73.788 60.724,73.617 61.924,72.736 62.825 C 70.523 65.089,68.699 61.878,69.917 57.863 C 70.904 54.610,70.440 51.845,68.307 48.262 C 67.779 47.375,67.668 46.819,67.659 45.002 C 67.645 42.451,67.384 42.090,66.682 43.649 M65.127 78.578 C 65.033 78.729,64.241 78.933,63.365 79.032 C 62.490 79.131,61.637 79.378,61.469 79.579 C 61.302 79.781,60.966 79.947,60.723 79.947 C 58.868 79.947,54.095 84.673,52.623 87.968 C 51.626 90.199,51.489 90.907,51.401 94.285 C 51.243 100.314,52.891 103.773,57.947 108.022 C 58.127 108.173,58.549 108.415,58.883 108.559 C 59.218 108.704,59.672 108.935,59.893 109.073 C 63.593 111.389,71.185 111.389,74.866 109.072 C 75.087 108.933,75.568 108.670,75.936 108.487 C 78.600 107.163,81.226 103.739,82.859 99.460 C 83.652 97.383,83.669 91.591,82.888 89.973 C 82.604 89.385,82.367 88.753,82.362 88.569 C 82.346 87.974,80.735 85.252,79.916 84.436 C 79.664 84.184,79.296 83.760,79.100 83.493 C 78.483 82.652,75.909 80.760,74.599 80.183 C 74.231 80.021,73.690 79.762,73.396 79.606 C 71.877 78.801,65.480 78.006,65.127 78.578 M44.038 102.072 C 44.105 102.771,44.270 103.691,44.406 104.117 C 44.541 104.544,44.656 105.266,44.661 105.722 C 44.666 106.178,44.903 107.032,45.187 107.620 C 45.471 108.209,45.708 108.841,45.713 109.025 C 45.718 109.209,45.963 109.809,46.257 110.358 C 46.551 110.907,46.791 111.498,46.791 111.672 C 46.791 111.845,46.882 112.028,46.992 112.077 C 47.102 112.126,47.636 112.844,48.178 113.673 C 49.558 115.784,52.500 118.720,54.055 119.536 C 54.398 119.717,54.775 120.027,54.893 120.226 C 55.011 120.425,55.327 120.588,55.596 120.588 C 55.864 120.588,56.234 120.769,56.417 120.989 C 56.600 121.210,56.886 121.394,57.051 121.399 C 57.217 121.404,57.834 121.641,58.422 121.925 C 59.011 122.209,59.672 122.447,59.893 122.452 C 60.114 122.458,60.655 122.655,61.096 122.889 C 62.978 123.889,71.719 123.647,74.866 122.508 C 76.828 121.798,79.627 120.460,79.947 120.079 C 80.148 119.839,81.778 118.717,81.925 118.717 C 82.215 118.717,85.685 115.029,86.328 114.037 C 87.329 112.493,87.637 111.981,88.019 111.230 C 88.205 110.862,88.437 110.501,88.534 110.428 C 88.631 110.354,88.835 109.873,88.986 109.358 C 89.138 108.844,89.388 108.061,89.542 107.620 C 91.011 103.424,91.181 99.716,89.786 102.331 C 89.344 103.159,88.844 103.983,88.676 104.161 C 88.507 104.340,88.132 104.830,87.843 105.251 C 87.554 105.672,86.411 106.905,85.303 107.991 C 82.768 110.478,82.512 110.695,82.130 110.695 C 81.958 110.695,81.818 110.802,81.818 110.932 C 81.818 111.062,81.402 111.366,80.894 111.608 C 80.385 111.849,79.897 112.163,79.808 112.307 C 79.720 112.450,79.429 112.567,79.161 112.567 C 78.894 112.567,78.525 112.747,78.342 112.968 C 78.159 113.189,77.827 113.369,77.603 113.369 C 77.380 113.369,76.703 113.595,76.099 113.871 C 73.905 114.873,72.623 115.068,67.598 115.166 C 63.540 115.245,62.417 115.185,61.616 114.851 C 61.074 114.624,60.403 114.439,60.127 114.439 C 59.850 114.439,59.175 114.198,58.626 113.904 C 58.077 113.610,57.495 113.369,57.332 113.369 C 57.169 113.369,56.506 113.074,55.858 112.713 C 55.209 112.352,54.288 111.857,53.810 111.613 C 53.332 111.369,52.941 111.062,52.941 110.932 C 52.941 110.802,52.801 110.695,52.629 110.695 C 52.287 110.695,52.247 110.661,49.728 108.231 C 47.676 106.254,46.836 105.282,45.812 103.702 C 45.398 103.063,44.907 102.444,44.722 102.326 C 44.537 102.209,44.385 101.818,44.385 101.457 C 44.385 101.097,44.279 100.802,44.150 100.802 C 44.021 100.802,43.971 101.374,44.038 102.072 M25.297 127.959 C 25.207 128.194,25.134 150.214,25.134 176.894 L 25.134 225.401 33.824 225.401 L 42.515 225.401 42.447 176.537 L 42.380 127.674 33.920 127.603 C 26.381 127.540,25.443 127.579,25.297 127.959 M48.849 127.712 C 49.025 127.784,49.620 128.256,50.171 128.761 C 50.723 129.266,51.265 129.679,51.377 129.679 C 51.558 129.679,53.170 130.669,53.877 131.215 C 54.024 131.328,54.445 131.571,54.813 131.755 C 55.180 131.939,56.203 132.569,57.086 133.155 C 57.968 133.741,58.870 134.305,59.091 134.407 C 59.311 134.509,60.039 134.961,60.708 135.411 C 62.010 136.288,62.203 136.410,64.395 137.759 C 66.827 139.255,66.956 139.309,67.741 139.144 C 68.427 138.999,69.636 138.306,71.714 136.866 C 72.112 136.590,72.505 136.364,72.585 136.364 C 72.666 136.364,73.303 135.965,74.000 135.478 C 74.697 134.991,75.448 134.509,75.668 134.407 C 75.889 134.305,76.791 133.741,77.674 133.155 C 78.556 132.569,79.579 131.940,79.947 131.758 C 80.314 131.577,80.675 131.360,80.749 131.276 C 80.822 131.192,81.484 130.777,82.219 130.352 C 82.955 129.928,83.715 129.422,83.909 129.229 C 84.104 129.035,84.435 128.877,84.645 128.877 C 84.855 128.877,85.027 128.765,85.027 128.629 C 85.027 128.492,85.216 128.191,85.447 127.960 C 85.829 127.578,84.170 127.542,67.198 127.561 C 56.930 127.573,48.673 127.641,48.849 127.712 M92.116 128.409 C 92.031 128.887,91.995 150.876,92.037 177.273 L 92.112 225.267 100.802 225.267 L 109.492 225.267 109.560 176.922 C 109.606 143.901,109.539 128.413,109.350 128.059 C 109.084 127.562,108.711 127.540,100.671 127.540 L 92.270 127.540 92.116 128.409 M48.041 144.294 C 47.551 144.784,47.853 151.314,48.378 151.595 C 48.720 151.778,55.172 151.872,67.454 151.872 C 89.417 151.872,86.951 152.420,86.840 147.563 L 86.765 144.251 67.493 144.183 C 56.893 144.145,48.140 144.195,48.041 144.294 M63.235 156.558 C 62.647 156.752,61.888 156.920,61.550 156.931 C 60.951 156.951,58.834 157.773,58.021 158.300 C 57.801 158.443,57.320 158.708,56.952 158.889 C 56.219 159.250,56.177 159.281,54.331 160.829 C 52.980 161.962,50.470 164.751,50.299 165.309 C 50.243 165.492,50.047 165.822,49.863 166.043 C 49.679 166.263,49.438 166.745,49.327 167.112 C 49.216 167.480,49.043 167.841,48.943 167.914 C 47.486 168.977,46.907 178.386,48.087 181.818 C 48.656 183.472,50.415 187.149,50.774 187.433 C 50.867 187.507,51.474 188.211,52.123 188.998 C 53.332 190.463,56.504 193.048,57.093 193.048 C 57.273 193.048,57.571 193.229,57.754 193.449 C 57.937 193.670,58.358 193.850,58.690 193.850 C 59.021 193.850,59.431 194.016,59.599 194.219 C 59.767 194.422,60.285 194.664,60.750 194.757 C 61.215 194.850,61.784 195.083,62.015 195.275 C 62.663 195.816,67.321 196.608,68.850 196.438 C 71.043 196.195,73.609 195.681,74.465 195.315 C 76.263 194.545,76.663 194.350,78.003 193.588 C 80.835 191.979,84.157 188.423,85.290 185.789 C 85.439 185.443,85.671 184.980,85.806 184.759 C 87.228 182.439,87.746 172.548,86.556 170.455 C 86.305 170.013,86.099 169.519,86.098 169.356 C 86.096 168.930,84.300 165.545,83.824 165.069 C 83.603 164.848,83.422 164.580,83.422 164.472 C 83.422 163.646,77.832 159.140,76.654 159.018 C 75.859 158.935,75.691 160.010,76.436 160.409 C 76.729 160.566,77.052 160.965,77.153 161.297 C 77.253 161.628,77.532 162.122,77.772 162.394 C 78.540 163.267,78.375 169.036,77.539 170.588 C 76.282 172.919,73.521 175.668,72.438 175.668 C 72.192 175.668,71.841 175.849,71.658 176.070 C 71.303 176.497,68.795 176.582,67.246 176.220 L 66.444 176.032 67.513 175.718 C 68.102 175.545,68.920 175.403,69.332 175.403 C 71.150 175.399,75.932 171.379,75.937 169.850 C 75.938 169.594,76.119 169.040,76.339 168.619 C 76.800 167.733,76.907 162.970,76.471 162.701 C 76.324 162.610,76.203 162.190,76.203 161.768 C 76.203 161.346,76.023 160.820,75.802 160.600 C 75.582 160.379,75.401 159.769,75.401 159.244 C 75.401 158.643,75.273 158.289,75.057 158.289 C 74.867 158.289,74.235 158.044,73.653 157.744 C 70.863 156.310,65.754 155.728,63.235 156.558 M68.480 162.269 C 69.593 162.528,70.362 163.216,71.122 164.634 C 72.838 167.835,67.966 171.882,65.241 169.519 C 64.902 169.225,64.544 168.984,64.445 168.984 C 64.347 168.984,64.004 168.404,63.684 167.695 C 62.222 164.459,64.894 161.436,68.480 162.269 M66.008 176.563 C 66.308 176.924,64.919 177.540,63.806 177.540 C 63.566 177.540,63.369 177.652,63.369 177.789 C 63.369 177.927,63.116 178.119,62.807 178.217 C 62.218 178.404,59.626 180.909,59.626 181.291 C 59.626 181.413,59.474 181.672,59.289 181.866 C 58.109 183.106,57.451 187.576,58.155 189.572 C 58.376 190.197,58.556 190.980,58.556 191.311 C 58.556 191.642,58.737 192.063,58.957 192.246 C 59.178 192.429,59.358 192.684,59.358 192.813 C 59.358 192.943,59.178 193.048,58.957 193.048 C 58.737 193.048,58.556 192.897,58.556 192.711 C 58.556 192.526,58.316 192.224,58.021 192.041 C 57.727 191.857,57.487 191.450,57.487 191.137 C 57.487 190.823,57.278 190.415,57.024 190.229 C 56.250 189.662,56.179 184.450,56.924 182.815 C 57.233 182.136,57.487 181.454,57.487 181.300 C 57.487 179.241,64.838 175.153,66.008 176.563 M68.774 183.384 C 72.218 185.140,72.342 189.128,69.006 190.867 C 67.403 191.702,66.363 191.529,64.646 190.141 C 61.250 187.398,64.907 181.412,68.774 183.384 M48.329 201.626 C 47.746 201.965,47.617 208.473,48.182 209.037 C 48.791 209.647,85.900 209.484,86.456 208.869 C 87.127 208.128,87.106 202.222,86.430 201.709 C 85.836 201.258,49.099 201.177,48.329 201.626 M48.853 213.803 C 48.712 213.944,50.347 215.241,50.667 215.241 C 50.727 215.241,51.353 215.631,52.059 216.108 C 52.765 216.585,53.673 217.157,54.077 217.378 C 55.593 218.209,58.703 220.167,59.043 220.505 C 59.237 220.698,59.572 220.856,59.787 220.856 C 60.002 220.856,60.246 221.036,60.331 221.257 C 60.416 221.477,60.624 221.658,60.793 221.658 C 61.072 221.658,62.479 222.510,65.722 224.645 C 67.072 225.533,67.675 225.584,68.661 224.893 C 69.059 224.614,70.287 223.820,71.390 223.128 C 72.493 222.437,73.722 221.642,74.120 221.363 C 74.519 221.084,74.961 220.856,75.104 220.856 C 75.246 220.856,75.522 220.704,75.716 220.518 C 76.231 220.026,78.320 218.665,79.144 218.285 C 79.365 218.184,80.126 217.691,80.836 217.191 C 81.546 216.690,82.389 216.165,82.708 216.023 C 83.894 215.495,86.088 213.985,85.917 213.813 C 85.692 213.589,49.078 213.578,48.853 213.803 " stroke="none" fill="#ebe12b" fill-rule="evenodd"></path><path id="path2" d="M1.337 134.091 L 1.337 266.310 66.689 266.310 C 102.633 266.310,132.232 266.237,132.465 266.148 C 133.024 265.933,133.125 2.751,132.567 2.193 C 132.319 1.945,117.344 1.872,66.791 1.872 L 1.337 1.872 1.337 134.091 M266.701 2.206 C 266.632 2.390,266.605 61.858,266.643 134.358 L 266.711 266.176 332.286 266.244 L 397.861 266.311 397.861 134.091 L 397.861 1.872 332.345 1.872 C 280.177 1.872,266.802 1.940,266.701 2.206 M68.984 42.914 C 68.984 43.600,68.824 44.185,68.583 44.385 C 68.362 44.568,68.182 45.049,68.182 45.455 C 68.182 45.860,68.362 46.341,68.583 46.524 C 68.803 46.707,68.984 47.128,68.984 47.460 C 68.984 47.792,69.160 48.209,69.375 48.387 C 69.590 48.565,69.846 48.966,69.945 49.276 C 70.043 49.587,70.296 50.014,70.507 50.224 C 71.024 50.741,70.913 59.919,70.388 60.094 C 69.841 60.275,70.007 61.420,70.686 62.152 C 71.463 62.991,71.476 62.991,72.314 62.154 C 73.123 61.344,73.116 61.390,72.527 60.800 C 71.848 60.121,71.849 55.903,72.527 55.153 C 72.822 54.828,72.996 54.201,72.998 53.455 C 73.003 51.902,73.241 51.070,73.681 51.070 C 74.172 51.070,75.401 52.249,75.401 52.720 C 75.401 52.933,75.578 53.340,75.794 53.625 C 76.276 54.263,76.322 56.235,75.871 56.956 C 75.605 57.382,75.607 57.582,75.879 57.955 C 76.066 58.212,76.289 58.633,76.376 58.890 C 76.462 59.148,76.633 59.358,76.755 59.358 C 78.084 59.358,78.873 65.321,77.807 67.310 C 77.513 67.859,77.273 68.465,77.273 68.657 C 77.273 69.623,73.632 73.406,72.453 73.665 C 72.036 73.756,71.551 74.004,71.376 74.215 C 70.933 74.749,63.850 74.774,63.319 74.243 C 63.123 74.047,62.663 73.810,62.297 73.715 C 61.931 73.621,61.158 73.119,60.580 72.601 C 60.002 72.082,59.430 71.658,59.310 71.658 C 59.189 71.658,59.091 71.477,59.091 71.257 C 59.091 71.036,58.964 70.856,58.810 70.856 C 58.655 70.856,58.356 70.443,58.145 69.938 C 57.935 69.433,57.640 68.945,57.491 68.853 C 57.341 68.761,57.219 68.383,57.219 68.013 C 57.219 67.644,57.039 67.161,56.818 66.940 C 56.262 66.385,56.236 61.550,56.788 61.338 C 56.992 61.260,57.230 60.841,57.317 60.408 C 57.404 59.974,57.838 59.264,58.283 58.829 C 59.193 57.940,59.274 57.402,58.680 56.210 C 58.269 55.386,58.377 54.011,58.853 54.011 C 58.984 54.011,59.091 53.733,59.091 53.395 C 59.091 53.049,59.478 52.404,59.973 51.924 C 61.063 50.867,61.497 51.155,61.497 52.935 C 61.497 53.651,61.685 54.427,61.949 54.803 C 62.197 55.158,62.484 55.876,62.586 56.400 L 62.773 57.353 62.803 56.236 C 62.820 55.621,63.015 54.938,63.235 54.717 C 63.456 54.497,63.636 54.127,63.636 53.896 C 63.636 53.665,63.877 53.235,64.171 52.941 C 64.465 52.647,64.706 52.301,64.706 52.172 C 64.706 52.043,64.878 51.794,65.088 51.620 C 65.383 51.375,65.491 50.346,65.556 47.153 C 65.626 43.773,65.719 42.946,66.059 42.692 C 66.289 42.520,66.553 42.178,66.645 41.931 C 67.150 40.584,68.984 41.355,68.984 42.914 M62.937 58.761 C 62.311 59.174,62.221 61.878,62.816 62.417 C 63.344 62.895,63.372 62.891,63.889 62.269 C 64.453 61.592,64.616 60.695,64.174 60.695 C 64.029 60.695,63.833 60.214,63.739 59.626 C 63.564 58.532,63.458 58.417,62.937 58.761 M71.925 78.209 C 72.108 78.429,72.656 78.610,73.142 78.610 C 73.628 78.610,74.201 78.784,74.414 78.997 C 74.627 79.211,75.108 79.462,75.483 79.556 C 75.858 79.650,76.230 79.897,76.309 80.104 C 76.389 80.312,76.613 80.481,76.807 80.481 C 77.096 80.481,78.934 81.936,79.745 82.807 C 80.256 83.356,82.086 85.831,82.086 85.974 C 82.086 86.062,82.266 86.315,82.487 86.536 C 82.707 86.756,82.888 87.220,82.888 87.567 C 82.888 87.913,83.089 88.399,83.336 88.645 C 83.603 88.912,83.833 89.680,83.904 90.541 C 83.970 91.337,84.129 92.054,84.258 92.133 C 84.560 92.320,84.565 96.982,84.263 97.169 C 84.137 97.247,83.968 97.946,83.888 98.722 C 83.760 99.957,83.427 100.888,82.571 102.406 C 82.447 102.627,82.215 103.138,82.056 103.543 C 81.896 103.947,81.654 104.278,81.516 104.278 C 81.379 104.278,81.193 104.489,81.104 104.746 C 80.896 105.345,78.317 108.021,77.948 108.021 C 77.794 108.021,77.518 108.262,77.335 108.556 C 77.151 108.850,76.834 109.091,76.631 109.091 C 76.427 109.091,76.191 109.271,76.107 109.492 C 76.022 109.713,75.663 109.893,75.309 109.893 C 74.954 109.893,74.525 110.060,74.356 110.265 C 74.186 110.470,73.519 110.716,72.874 110.813 C 72.229 110.910,71.557 111.163,71.379 111.377 C 70.912 111.941,64.001 111.937,63.195 111.372 C 62.887 111.156,62.128 110.899,61.508 110.800 C 60.889 110.701,60.319 110.456,60.243 110.256 C 60.166 110.057,59.862 109.893,59.568 109.893 C 58.994 109.893,55.828 107.518,54.948 106.426 C 54.654 106.062,54.203 105.584,53.945 105.363 C 53.687 105.142,53.476 104.808,53.476 104.620 C 53.476 104.432,53.373 104.278,53.247 104.278 C 52.937 104.278,51.604 101.678,51.604 101.073 C 51.604 100.809,51.424 100.523,51.203 100.438 C 50.904 100.323,50.802 99.847,50.802 98.571 C 50.802 97.374,50.681 96.757,50.401 96.524 C 50.130 96.299,50.000 95.694,50.000 94.652 C 50.000 93.611,50.130 93.006,50.401 92.781 C 50.673 92.555,50.802 91.951,50.802 90.909 C 50.802 89.867,50.932 89.263,51.203 89.037 C 51.424 88.854,51.604 88.437,51.604 88.110 C 51.604 87.783,51.845 87.238,52.139 86.898 C 52.433 86.559,52.674 86.056,52.674 85.780 C 52.674 85.503,52.854 85.208,53.075 85.123 C 53.295 85.039,53.476 84.835,53.476 84.672 C 53.476 84.272,56.450 81.283,56.848 81.283 C 57.021 81.283,57.231 81.103,57.316 80.882 C 57.401 80.662,57.641 80.481,57.851 80.481 C 58.060 80.481,58.301 80.301,58.385 80.080 C 58.470 79.860,58.768 79.679,59.046 79.679 C 59.325 79.679,59.859 79.439,60.233 79.144 C 60.607 78.850,61.271 78.610,61.707 78.610 C 62.144 78.610,62.651 78.429,62.834 78.209 C 63.104 77.883,63.961 77.807,67.380 77.807 C 70.798 77.807,71.655 77.883,71.925 78.209 M44.826 100.267 C 44.914 100.709,45.090 101.070,45.217 101.070 C 45.344 101.070,45.627 101.461,45.847 101.939 C 46.319 102.966,46.753 103.652,47.393 104.381 C 47.650 104.674,47.861 105.071,47.861 105.264 C 47.861 105.457,48.041 105.615,48.262 105.615 C 48.483 105.615,48.663 105.735,48.663 105.882 C 48.663 106.276,51.318 108.833,52.690 109.759 C 53.343 110.201,54.036 110.712,54.230 110.896 C 54.425 111.080,54.741 111.230,54.933 111.230 C 55.125 111.230,55.432 111.410,55.615 111.631 C 55.798 111.852,56.185 112.032,56.475 112.032 C 56.764 112.032,57.307 112.273,57.681 112.567 C 58.055 112.861,58.691 113.102,59.094 113.102 C 59.498 113.102,59.977 113.282,60.160 113.503 C 60.374 113.760,60.965 113.904,61.806 113.904 C 62.528 113.904,63.551 114.084,64.079 114.305 C 64.684 114.558,65.904 114.706,67.380 114.706 C 68.856 114.706,70.075 114.558,70.681 114.305 C 71.209 114.084,72.291 113.904,73.087 113.904 C 74.047 113.904,74.646 113.769,74.866 113.503 C 75.049 113.282,75.469 113.102,75.799 113.102 C 76.129 113.102,76.704 112.861,77.078 112.567 C 77.452 112.273,78.010 112.032,78.318 112.032 C 78.625 112.032,78.877 111.914,78.877 111.770 C 78.877 111.626,79.169 111.434,79.526 111.345 C 79.883 111.255,80.383 110.952,80.637 110.671 C 80.891 110.390,81.210 110.160,81.347 110.160 C 81.908 110.160,86.096 106.369,86.096 105.861 C 86.096 105.726,86.277 105.615,86.497 105.615 C 86.718 105.615,86.898 105.505,86.898 105.372 C 86.898 105.002,88.299 102.941,88.550 102.941 C 88.671 102.941,88.770 102.717,88.770 102.442 C 88.770 102.168,88.981 101.655,89.238 101.303 C 89.495 100.951,89.835 100.430,89.992 100.147 C 90.908 98.499,91.550 100.337,91.291 103.863 C 91.171 105.490,90.972 106.522,90.739 106.715 C 90.538 106.881,90.374 107.469,90.374 108.021 C 90.374 108.588,90.199 109.171,89.973 109.358 C 89.753 109.541,89.572 109.901,89.572 110.157 C 89.572 110.413,89.332 110.929,89.037 111.303 C 88.743 111.677,88.503 112.119,88.503 112.286 C 88.503 112.658,87.423 114.226,86.965 114.519 C 86.781 114.636,86.631 114.880,86.631 115.060 C 86.631 115.469,82.851 119.251,82.442 119.251 C 82.277 119.251,82.074 119.432,81.989 119.652 C 81.904 119.873,81.651 120.053,81.426 120.053 C 81.200 120.053,81.016 120.176,81.016 120.327 C 81.016 120.477,80.685 120.745,80.281 120.923 C 79.876 121.100,79.449 121.398,79.332 121.585 C 79.214 121.772,78.913 121.926,78.663 121.927 C 78.413 121.928,77.848 122.168,77.406 122.460 C 76.965 122.752,76.348 122.992,76.035 122.993 C 75.723 122.994,75.317 123.175,75.134 123.396 C 74.928 123.643,74.327 123.800,73.564 123.806 C 72.883 123.811,72.025 123.988,71.658 124.198 C 70.687 124.753,63.995 124.754,62.932 124.200 C 62.510 123.980,61.663 123.799,61.049 123.798 C 60.414 123.798,59.758 123.624,59.530 123.396 C 59.310 123.175,58.896 122.995,58.611 122.995 C 58.327 122.995,57.788 122.754,57.414 122.460 C 57.040 122.166,56.488 121.925,56.188 121.925 C 55.887 121.925,55.545 121.772,55.428 121.585 C 55.310 121.398,54.862 121.067,54.432 120.850 C 52.862 120.055,52.674 119.920,52.674 119.589 C 52.674 119.403,52.520 119.251,52.332 119.251 C 52.144 119.251,51.803 119.041,51.575 118.783 C 51.346 118.526,50.808 118.004,50.379 117.624 C 49.950 117.243,49.238 116.475,48.797 115.917 C 48.356 115.359,47.784 114.711,47.527 114.477 C 47.269 114.243,47.059 113.853,47.059 113.610 C 47.059 113.366,46.886 113.024,46.675 112.849 C 46.147 112.411,45.187 110.519,45.187 109.918 C 45.187 109.646,45.007 109.274,44.786 109.091 C 44.566 108.908,44.381 108.442,44.376 108.055 C 44.371 107.669,44.134 106.872,43.850 106.283 C 43.333 105.212,43.083 100.918,43.478 99.888 C 43.767 99.135,44.649 99.384,44.826 100.267 M43.504 127.807 C 43.773 128.339,43.843 138.400,43.846 176.888 L 43.850 225.301 43.089 226.030 L 42.328 226.759 33.573 226.682 L 24.819 226.604 24.308 225.973 C 23.710 225.235,23.482 128.628,24.075 127.519 C 24.345 127.016,24.675 127.001,33.760 127.069 L 43.166 127.139 43.504 127.807 M87.278 127.448 C 87.475 127.960,85.981 129.383,85.227 129.401 C 84.970 129.407,84.759 129.530,84.759 129.676 C 84.759 129.821,84.368 130.119,83.890 130.339 C 82.711 130.880,81.994 131.351,81.738 131.751 C 81.620 131.935,81.368 132.086,81.177 132.086 C 80.987 132.086,80.553 132.326,80.214 132.620 C 79.875 132.914,79.435 133.155,79.237 133.155 C 79.039 133.155,78.877 133.264,78.877 133.396 C 78.877 133.529,78.516 133.763,78.075 133.917 C 77.634 134.071,77.273 134.312,77.273 134.452 C 77.273 134.592,76.942 134.843,76.537 135.009 C 75.513 135.429,74.771 135.886,74.225 136.432 C 73.968 136.689,73.527 136.898,73.243 136.898 C 72.959 136.898,72.727 137.012,72.727 137.151 C 72.727 137.387,72.237 137.708,70.588 138.551 C 70.221 138.739,69.851 138.987,69.768 139.103 C 69.127 139.988,66.730 140.623,66.481 139.973 C 66.396 139.753,66.141 139.572,65.915 139.572 C 65.688 139.572,64.926 139.181,64.222 138.703 C 62.355 137.437,61.959 137.191,61.353 136.926 C 61.052 136.794,60.647 136.494,60.451 136.258 C 60.255 136.022,59.925 135.829,59.718 135.829 C 59.511 135.829,59.272 135.648,59.188 135.428 C 59.103 135.207,58.811 135.027,58.538 135.027 C 58.265 135.027,57.827 134.801,57.564 134.525 C 57.301 134.249,56.815 133.940,56.484 133.839 C 56.153 133.737,55.882 133.555,55.882 133.433 C 55.882 133.312,55.582 133.138,55.214 133.045 C 54.846 132.953,54.545 132.759,54.545 132.615 C 54.545 132.471,54.388 132.353,54.195 132.353 C 54.002 132.353,53.602 132.127,53.305 131.851 C 53.009 131.575,52.505 131.266,52.185 131.164 C 51.866 131.063,51.604 130.868,51.604 130.731 C 51.604 130.593,51.424 130.481,51.203 130.481 C 50.983 130.481,50.561 130.241,50.267 129.947 C 49.973 129.652,49.582 129.408,49.398 129.404 C 48.496 129.383,46.987 127.454,47.660 127.182 C 48.709 126.759,87.113 127.016,87.278 127.448 M110.533 127.428 C 110.622 127.661,110.695 149.851,110.695 176.740 L 110.695 225.630 109.986 226.187 C 109.296 226.730,109.045 226.743,100.702 226.675 L 92.128 226.604 91.790 225.936 C 91.435 225.234,91.261 128.919,91.612 127.607 L 91.774 127.005 101.072 127.005 C 109.304 127.005,110.389 127.054,110.533 127.428 M87.284 143.642 C 87.778 144.347,87.892 151.282,87.424 152.157 C 87.081 152.797,48.015 152.988,47.380 152.353 C 47.158 152.131,47.059 150.749,47.059 147.861 C 47.059 144.973,47.158 143.591,47.380 143.369 C 47.623 143.125,52.409 143.048,67.284 143.048 L 86.868 143.048 87.284 143.642 M72.193 156.009 C 72.560 156.222,73.041 156.467,73.262 156.554 C 73.483 156.641,74.004 156.886,74.420 157.099 C 74.836 157.312,75.378 157.495,75.623 157.504 C 75.869 157.514,76.671 157.874,77.406 158.304 C 78.142 158.735,79.017 159.206,79.352 159.352 C 79.686 159.498,80.030 159.800,80.116 160.023 C 80.201 160.246,80.385 160.428,80.525 160.428 C 80.735 160.428,81.989 161.657,84.363 164.194 C 84.581 164.426,84.759 164.698,84.759 164.798 C 84.759 164.897,85.180 165.578,85.695 166.310 C 86.210 167.042,86.631 167.824,86.631 168.046 C 86.631 168.269,86.872 168.900,87.166 169.449 C 87.460 169.998,87.701 170.826,87.701 171.289 C 87.701 171.752,87.880 172.476,88.100 172.897 C 88.634 173.922,88.651 178.740,88.124 180.142 C 87.916 180.696,87.685 181.670,87.612 182.307 C 87.539 182.943,87.288 183.675,87.055 183.932 C 86.822 184.190,86.631 184.653,86.631 184.962 C 86.631 185.271,86.456 185.698,86.243 185.911 C 86.030 186.124,85.778 186.606,85.684 186.980 C 85.590 187.355,85.344 187.727,85.136 187.806 C 84.929 187.886,84.759 188.129,84.759 188.347 C 84.759 188.565,84.609 188.840,84.424 188.957 C 84.240 189.075,83.754 189.652,83.345 190.241 C 82.936 190.829,82.334 191.519,82.009 191.773 C 81.683 192.028,80.798 192.720,80.042 193.311 C 79.286 193.902,78.488 194.385,78.270 194.385 C 78.052 194.385,77.730 194.558,77.554 194.769 C 77.379 194.980,76.893 195.228,76.474 195.320 C 76.056 195.412,75.647 195.660,75.565 195.872 C 75.468 196.126,75.018 196.257,74.239 196.257 C 73.517 196.257,72.931 196.412,72.727 196.658 C 72.456 196.984,71.584 197.059,68.034 197.059 C 64.516 197.059,63.597 196.981,63.273 196.658 C 63.053 196.437,62.509 196.257,62.064 196.257 C 61.608 196.257,61.154 196.074,61.021 195.836 C 60.892 195.605,60.274 195.347,59.648 195.263 C 59.022 195.179,58.447 194.947,58.371 194.748 C 58.294 194.548,58.008 194.385,57.734 194.385 C 56.177 194.385,49.733 188.561,49.733 187.154 C 49.733 187.013,49.629 186.898,49.503 186.898 C 49.195 186.898,47.861 184.299,47.861 183.698 C 47.861 183.435,47.680 183.071,47.460 182.888 C 47.193 182.666,47.059 182.067,47.059 181.098 C 47.059 180.159,46.916 179.498,46.658 179.240 C 46.351 178.933,46.257 178.160,46.257 175.936 C 46.257 173.712,46.351 172.939,46.658 172.632 C 46.907 172.382,47.059 171.726,47.059 170.894 C 47.059 170.130,47.213 169.403,47.419 169.197 C 47.617 168.999,47.861 168.400,47.961 167.867 C 48.061 167.333,48.320 166.829,48.537 166.745 C 48.753 166.662,48.930 166.286,48.930 165.909 C 48.930 165.532,49.111 165.155,49.332 165.070 C 49.552 164.985,49.733 164.798,49.733 164.653 C 49.733 163.984,54.084 159.358,54.712 159.358 C 54.924 159.358,55.166 159.178,55.251 158.957 C 55.336 158.737,55.523 158.556,55.668 158.556 C 55.813 158.556,56.238 158.316,56.612 158.021 C 56.985 157.727,57.464 157.487,57.675 157.487 C 57.887 157.487,58.240 157.306,58.461 157.086 C 58.681 156.865,59.094 156.684,59.378 156.684 C 59.663 156.684,60.344 156.444,60.893 156.150 C 62.192 155.454,71.042 155.344,72.193 156.009 M65.307 163.731 C 63.905 165.089,64.222 168.717,65.743 168.717 C 65.872 168.717,66.127 168.897,66.310 169.118 C 67.454 170.496,70.321 168.375,70.321 166.150 C 70.321 163.176,67.357 161.747,65.307 163.731 M65.040 184.869 C 64.154 185.803,64.172 188.455,65.071 189.425 C 66.032 190.462,68.724 190.431,69.657 189.372 C 70.580 188.323,70.553 185.027,69.621 185.027 C 69.418 185.027,69.251 184.846,69.251 184.626 C 69.251 183.884,65.784 184.084,65.040 184.869 M57.044 186.497 C 57.045 187.674,57.092 188.122,57.148 187.493 C 57.204 186.864,57.204 185.901,57.146 185.354 C 57.089 184.806,57.043 185.321,57.044 186.497 M87.166 200.529 C 87.678 200.852,87.917 208.721,87.441 209.610 C 87.145 210.163,87.132 210.164,67.169 210.095 L 47.193 210.027 47.119 205.517 C 47.069 202.417,47.142 200.891,47.352 200.637 C 47.723 200.190,86.462 200.084,87.166 200.529 M87.171 213.112 C 87.575 213.866,87.302 214.529,86.431 214.910 C 86.026 215.086,85.334 215.472,84.893 215.767 C 84.452 216.061,83.845 216.412,83.545 216.546 C 83.245 216.680,82.839 216.982,82.643 217.218 C 82.448 217.454,82.074 217.647,81.814 217.647 C 81.554 217.647,81.271 217.828,81.187 218.048 C 81.102 218.269,80.867 218.449,80.665 218.449 C 80.462 218.449,80.079 218.690,79.813 218.984 C 79.547 219.278,79.107 219.519,78.836 219.519 C 78.564 219.519,78.342 219.630,78.342 219.767 C 78.342 219.903,78.011 220.181,77.607 220.386 C 76.201 221.096,75.534 221.526,75.321 221.858 C 75.203 222.042,74.951 222.193,74.760 222.193 C 74.569 222.193,74.136 222.433,73.797 222.727 C 73.458 223.021,73.018 223.262,72.820 223.262 C 72.622 223.262,72.460 223.374,72.460 223.511 C 72.460 223.649,72.196 223.845,71.873 223.947 C 71.551 224.049,70.710 224.539,70.004 225.034 C 69.299 225.530,68.490 225.936,68.207 225.936 C 67.923 225.936,67.646 226.073,67.590 226.240 C 67.492 226.534,67.182 226.429,65.775 225.623 C 65.555 225.497,65.043 225.263,64.639 225.104 C 64.235 224.944,63.904 224.707,63.904 224.576 C 63.904 224.446,63.513 224.159,63.035 223.939 C 61.856 223.398,61.138 222.927,60.882 222.527 C 60.765 222.343,60.430 222.193,60.139 222.193 C 59.847 222.193,59.540 222.012,59.455 221.791 C 59.370 221.571,59.152 221.390,58.970 221.390 C 58.787 221.390,58.361 221.150,58.021 220.856 C 57.682 220.561,57.239 220.321,57.036 220.321 C 56.834 220.321,56.598 220.140,56.514 219.920 C 56.429 219.699,56.151 219.519,55.895 219.519 C 55.640 219.519,55.213 219.278,54.947 218.984 C 54.680 218.690,54.297 218.449,54.095 218.449 C 53.892 218.449,53.657 218.269,53.573 218.048 C 53.488 217.828,53.190 217.647,52.910 217.647 C 52.630 217.647,52.195 217.406,51.943 217.112 C 51.691 216.818,51.328 216.578,51.135 216.578 C 50.943 216.578,50.716 216.397,50.631 216.176 C 50.547 215.956,50.268 215.775,50.013 215.775 C 49.757 215.775,49.340 215.546,49.086 215.265 C 48.832 214.984,48.332 214.681,47.975 214.591 C 47.261 214.412,47.020 213.002,47.660 212.744 C 48.920 212.236,86.891 212.589,87.171 213.112 " stroke="none" fill="#cc1c24" fill-rule="evenodd"></path><path id="path3" d="M0.802 0.401 C 0.802 0.622,0.622 0.802,0.401 0.802 C 0.045 0.802,0.000 15.746,0.000 133.690 C 0.000 251.634,0.045 266.578,0.401 266.578 C 0.757 266.578,0.802 251.706,0.802 134.341 C 0.802 43.698,0.889 1.941,1.079 1.587 C 1.460 0.874,132.539 0.759,133.251 1.471 C 133.758 1.978,133.957 1.978,133.957 1.471 C 133.957 1.115,141.429 1.070,199.599 1.070 C 257.769 1.070,265.241 1.115,265.241 1.471 C 265.241 1.977,265.531 1.979,266.192 1.479 C 266.645 1.136,275.069 1.085,332.426 1.078 L 398.142 1.070 398.402 1.755 C 398.851 2.935,398.751 265.904,398.302 266.277 C 397.785 266.706,133.957 266.706,133.957 266.277 C 133.957 266.056,133.863 266.056,133.596 266.277 C 133.332 266.496,115.450 266.595,67.108 266.644 C 14.492 266.697,0.958 266.780,0.869 267.045 C 0.780 267.313,40.694 267.380,199.843 267.380 L 398.929 267.380 398.997 134.425 C 399.034 61.300,399.020 1.140,398.967 0.735 L 398.870 0.000 199.836 0.000 C 23.095 0.000,0.802 0.045,0.802 0.401 " stroke="none" fill="#624850" fill-rule="evenodd"></path><path id="path4" d="M0.000 0.401 C 0.000 0.622,0.180 0.802,0.401 0.802 C 0.622 0.802,0.802 0.622,0.802 0.401 C 0.802 0.180,0.622 0.000,0.401 0.000 C 0.180 0.000,0.000 0.180,0.000 0.401 M398.931 133.690 C 398.929 267.267,398.929 267.380,399.464 267.380 C 400.000 267.380,400.000 267.266,400.000 133.690 C 400.000 0.310,399.999 -0.000,399.467 -0.000 C 398.935 -0.000,398.934 0.311,398.931 133.690 M265.686 1.783 C 265.588 1.881,265.508 61.427,265.508 134.107 C 265.508 271.886,265.472 266.578,266.399 266.578 C 266.424 266.578,266.414 206.959,266.376 134.091 C 266.339 61.223,266.209 1.604,266.087 1.604 C 265.965 1.604,265.784 1.684,265.686 1.783 M133.489 134.002 C 133.436 239.513,133.355 266.293,133.088 266.400 C 132.826 266.506,132.828 266.540,133.097 266.556 C 133.699 266.594,133.694 267.917,133.624 133.824 L 133.556 1.738 133.489 134.002 M0.802 266.294 C 0.802 266.450,0.622 266.578,0.401 266.578 C 0.180 266.578,0.000 266.758,0.000 266.979 C 0.000 267.199,0.152 267.380,0.337 267.380 C 0.799 267.380,1.401 266.381,1.064 266.173 C 0.920 266.084,0.802 266.139,0.802 266.294 " stroke="none" fill="#8c6474" fill-rule="evenodd"></path><path id="path5" d="M66.511 42.876 C 65.801 44.000,65.775 44.166,65.775 47.717 C 65.775 51.383,65.773 51.396,64.988 52.388 C 64.161 53.432,63.379 55.342,63.373 56.337 C 63.368 57.121,64.094 59.878,64.406 60.259 C 64.917 60.882,64.832 61.727,64.191 62.411 C 63.392 63.263,63.335 63.263,62.325 62.413 L 61.507 61.725 61.939 60.742 C 62.540 59.378,62.542 56.490,61.943 55.582 C 61.688 55.196,61.407 54.260,61.317 53.502 C 61.117 51.817,61.035 51.758,60.027 52.562 C 59.241 53.189,59.224 53.253,59.212 55.686 C 59.200 57.999,59.143 58.251,58.389 59.365 C 56.432 62.254,56.196 65.798,57.785 68.449 C 57.917 68.670,58.103 69.031,58.198 69.251 C 58.739 70.502,61.953 73.529,62.740 73.529 C 62.821 73.529,63.284 73.718,63.769 73.948 C 64.884 74.477,69.970 74.360,71.390 73.772 C 77.447 71.267,79.785 64.306,76.263 59.262 C 75.408 58.037,75.366 57.873,75.533 56.429 C 75.750 54.565,75.365 52.984,74.496 52.168 C 73.722 51.441,73.539 51.655,73.387 53.464 C 73.326 54.193,73.032 55.244,72.734 55.800 C 72.038 57.099,72.043 58.792,72.748 60.339 L 73.303 61.559 72.564 62.330 C 70.828 64.143,69.081 61.831,70.187 59.183 C 70.903 57.470,70.728 51.475,69.923 50.134 C 67.933 46.818,67.623 45.546,68.323 43.562 C 69.095 41.374,67.775 40.874,66.511 42.876 M67.659 45.002 C 67.668 46.819,67.779 47.375,68.307 48.262 C 70.440 51.845,70.904 54.610,69.917 57.863 C 68.699 61.878,70.523 65.089,72.736 62.825 C 73.617 61.924,73.788 60.724,73.128 60.065 C 72.602 59.538,72.597 56.977,73.121 55.971 C 73.338 55.555,73.713 54.763,73.954 54.211 C 74.752 52.387,75.201 53.325,75.074 56.552 C 75.003 58.344,75.460 59.584,76.502 60.428 C 76.884 60.737,77.578 63.820,77.434 64.566 C 77.349 65.011,77.161 65.941,77.018 66.634 C 75.768 72.684,66.903 76.230,62.061 72.616 C 57.557 69.254,56.005 63.330,58.703 59.797 C 59.614 58.604,59.626 58.553,59.626 55.898 C 59.626 54.419,59.706 53.209,59.805 53.209 C 60.171 53.209,60.963 54.108,60.963 54.524 C 60.963 54.761,61.203 55.403,61.497 55.952 C 62.130 57.133,62.188 58.918,61.629 59.990 C 61.083 61.039,61.142 61.771,61.841 62.602 C 63.645 64.748,66.166 62.341,64.819 59.759 C 63.926 58.048,63.825 54.376,64.654 53.750 C 65.883 52.821,66.176 51.763,66.176 48.254 C 66.176 45.411,66.270 44.563,66.682 43.649 C 67.384 42.090,67.645 42.451,67.659 45.002 M63.636 78.376 C 57.721 79.911,54.013 83.310,51.430 89.566 C 50.718 91.289,50.699 98.728,51.404 99.802 C 51.661 100.195,51.873 100.731,51.875 100.993 C 51.878 101.561,53.807 104.642,54.957 105.917 C 56.867 108.036,60.308 110.236,62.433 110.696 C 63.021 110.824,63.984 111.053,64.572 111.206 C 66.110 111.606,69.228 111.560,70.607 111.117 C 71.259 110.908,72.243 110.662,72.794 110.570 C 73.346 110.479,73.797 110.302,73.797 110.177 C 73.797 110.053,74.108 109.873,74.487 109.778 C 76.890 109.175,81.996 103.952,82.740 101.337 C 82.845 100.969,83.128 100.247,83.370 99.733 C 83.719 98.990,83.810 97.940,83.810 94.652 C 83.810 90.279,83.883 90.642,82.286 87.166 C 80.557 83.404,76.140 79.691,72.193 78.683 C 71.384 78.477,70.301 78.198,69.786 78.064 C 68.319 77.682,65.825 77.809,63.636 78.376 M71.123 78.935 C 72.079 79.148,73.102 79.450,73.396 79.606 C 73.690 79.762,74.231 80.021,74.599 80.183 C 75.909 80.760,78.483 82.652,79.100 83.493 C 79.296 83.760,79.664 84.184,79.916 84.436 C 80.735 85.252,82.346 87.974,82.362 88.569 C 82.367 88.753,82.604 89.385,82.888 89.973 C 83.669 91.591,83.652 97.383,82.859 99.460 C 81.226 103.739,78.600 107.163,75.936 108.487 C 75.568 108.670,75.087 108.933,74.866 109.072 C 71.185 111.389,63.593 111.389,59.893 109.073 C 59.672 108.935,59.218 108.704,58.883 108.559 C 58.549 108.415,58.127 108.173,57.947 108.022 C 52.891 103.773,51.243 100.314,51.401 94.285 C 51.489 90.907,51.626 90.199,52.623 87.968 C 54.095 84.673,58.868 79.947,60.723 79.947 C 60.966 79.947,61.302 79.781,61.469 79.579 C 61.637 79.378,62.490 79.131,63.365 79.032 C 64.241 78.933,65.033 78.729,65.127 78.578 C 65.348 78.220,68.848 78.428,71.123 78.935 M43.761 100.178 C 43.426 100.513,43.582 103.941,43.984 105.080 C 44.205 105.705,44.385 106.454,44.385 106.745 C 44.385 107.035,44.548 107.651,44.747 108.115 C 46.094 111.252,46.502 112.069,47.419 113.462 C 47.984 114.321,48.646 115.239,48.889 115.500 C 50.824 117.579,51.413 118.163,52.405 118.984 C 53.027 119.499,53.733 120.011,53.974 120.123 C 54.215 120.235,54.773 120.562,55.214 120.849 C 62.599 125.656,74.369 125.142,81.414 119.704 C 84.102 117.630,87.590 113.569,88.498 111.458 C 88.647 111.112,88.877 110.648,89.010 110.428 C 90.503 107.939,91.675 101.531,90.839 100.425 C 90.476 99.946,90.399 100.020,89.593 101.606 C 87.521 105.683,80.593 112.299,78.395 112.299 C 78.255 112.299,77.991 112.480,77.807 112.701 C 77.624 112.921,77.237 113.102,76.947 113.102 C 76.657 113.102,76.100 113.273,75.710 113.483 C 72.509 115.206,61.584 115.319,59.500 113.651 C 59.349 113.530,58.803 113.343,58.289 113.236 C 57.774 113.130,57.172 112.889,56.952 112.702 C 56.731 112.516,56.280 112.280,55.949 112.179 C 55.348 111.996,53.198 110.653,51.799 109.586 C 49.420 107.773,46.588 104.390,45.173 101.671 C 44.320 100.032,44.119 99.820,43.761 100.178 M44.385 101.457 C 44.385 101.818,44.537 102.209,44.722 102.326 C 44.907 102.444,45.398 103.063,45.812 103.702 C 46.836 105.282,47.676 106.254,49.728 108.231 C 52.247 110.661,52.287 110.695,52.629 110.695 C 52.801 110.695,52.941 110.802,52.941 110.932 C 52.941 111.062,53.332 111.369,53.810 111.613 C 54.288 111.857,55.209 112.352,55.858 112.713 C 56.506 113.074,57.169 113.369,57.332 113.369 C 57.495 113.369,58.077 113.610,58.626 113.904 C 59.175 114.198,59.850 114.439,60.127 114.439 C 60.403 114.439,61.074 114.624,61.616 114.851 C 62.417 115.185,63.540 115.245,67.598 115.166 C 72.623 115.068,73.905 114.873,76.099 113.871 C 76.703 113.595,77.380 113.369,77.603 113.369 C 77.827 113.369,78.159 113.189,78.342 112.968 C 78.525 112.747,78.894 112.567,79.161 112.567 C 79.429 112.567,79.720 112.450,79.808 112.307 C 79.897 112.163,80.385 111.849,80.894 111.608 C 81.402 111.366,81.818 111.062,81.818 110.932 C 81.818 110.802,81.958 110.695,82.130 110.695 C 82.512 110.695,82.768 110.478,85.303 107.991 C 86.411 106.905,87.554 105.672,87.843 105.251 C 88.132 104.830,88.507 104.340,88.676 104.161 C 88.844 103.983,89.344 103.159,89.786 102.331 C 91.181 99.716,91.011 103.424,89.542 107.620 C 89.388 108.061,89.138 108.844,88.986 109.358 C 88.835 109.873,88.631 110.354,88.534 110.428 C 88.437 110.501,88.205 110.862,88.019 111.230 C 87.637 111.981,87.329 112.493,86.328 114.037 C 85.685 115.029,82.215 118.717,81.925 118.717 C 81.778 118.717,80.148 119.839,79.947 120.079 C 79.627 120.460,76.828 121.798,74.866 122.508 C 71.719 123.647,62.978 123.889,61.096 122.889 C 60.655 122.655,60.114 122.458,59.893 122.452 C 59.672 122.447,59.011 122.209,58.422 121.925 C 57.834 121.641,57.217 121.404,57.051 121.399 C 56.886 121.394,56.600 121.210,56.417 120.989 C 56.234 120.769,55.864 120.588,55.596 120.588 C 55.327 120.588,55.011 120.425,54.893 120.226 C 54.775 120.027,54.398 119.717,54.055 119.536 C 52.500 118.720,49.558 115.784,48.178 113.673 C 47.636 112.844,47.102 112.126,46.992 112.077 C 46.882 112.028,46.791 111.845,46.791 111.672 C 46.791 111.498,46.551 110.907,46.257 110.358 C 45.963 109.809,45.718 109.209,45.713 109.025 C 45.708 108.841,45.471 108.209,45.187 107.620 C 44.903 107.032,44.666 106.178,44.661 105.722 C 44.656 105.266,44.541 104.544,44.406 104.117 C 44.046 102.985,43.878 100.802,44.150 100.802 C 44.279 100.802,44.385 101.097,44.385 101.457 M24.926 127.422 L 24.332 127.838 24.332 176.566 C 24.332 214.109,24.405 225.368,24.652 225.615 C 24.992 225.955,41.768 226.103,42.625 225.774 C 43.356 225.493,43.263 127.674,42.531 127.282 C 41.611 126.790,25.647 126.916,24.926 127.422 M48.289 127.354 C 47.899 127.639,47.878 127.753,48.171 127.985 C 48.878 128.545,51.211 130.117,51.604 130.299 C 51.825 130.401,52.727 130.960,53.610 131.540 C 54.492 132.120,55.859 132.992,56.646 133.477 C 57.434 133.962,58.397 134.568,58.785 134.823 C 59.174 135.079,59.793 135.439,60.160 135.622 C 60.528 135.806,60.966 136.086,61.134 136.245 C 61.472 136.566,64.723 138.593,66.287 139.460 L 67.291 140.015 68.383 139.460 C 69.592 138.844,71.496 137.687,73.930 136.087 C 74.813 135.507,75.775 134.910,76.070 134.759 C 76.364 134.609,77.326 134.012,78.209 133.432 C 79.582 132.529,81.386 131.394,83.111 130.344 C 84.052 129.772,85.195 129.005,86.049 128.372 L 86.938 127.714 86.317 127.369 C 85.400 126.860,48.984 126.846,48.289 127.354 M92.032 127.326 C 91.692 127.666,91.535 224.631,91.874 225.513 C 92.118 226.151,109.369 226.154,110.008 225.516 C 110.431 225.092,110.686 129.732,110.268 128.174 C 110.184 127.861,109.819 127.470,109.457 127.305 C 108.499 126.869,92.470 126.888,92.032 127.326 M42.447 176.537 L 42.515 225.401 33.824 225.401 L 25.134 225.401 25.134 176.894 C 25.134 150.214,25.207 128.194,25.297 127.959 C 25.443 127.579,26.381 127.540,33.920 127.603 L 42.380 127.674 42.447 176.537 M85.447 127.960 C 85.216 128.191,85.027 128.492,85.027 128.629 C 85.027 128.765,84.855 128.877,84.645 128.877 C 84.435 128.877,84.104 129.035,83.909 129.229 C 83.715 129.422,82.955 129.928,82.219 130.352 C 81.484 130.777,80.822 131.192,80.749 131.276 C 80.675 131.360,80.314 131.577,79.947 131.758 C 79.579 131.940,78.556 132.569,77.674 133.155 C 76.791 133.741,75.889 134.305,75.668 134.407 C 75.448 134.509,74.697 134.991,74.000 135.478 C 73.303 135.965,72.666 136.364,72.585 136.364 C 72.505 136.364,72.112 136.590,71.714 136.866 C 69.636 138.306,68.427 138.999,67.741 139.144 C 66.956 139.309,66.827 139.255,64.395 137.759 C 62.203 136.410,62.010 136.288,60.708 135.411 C 60.039 134.961,59.311 134.509,59.091 134.407 C 58.870 134.305,57.968 133.741,57.086 133.155 C 56.203 132.569,55.180 131.939,54.813 131.755 C 54.445 131.571,54.024 131.328,53.877 131.215 C 53.170 130.669,51.558 129.679,51.377 129.679 C 51.265 129.679,50.723 129.266,50.171 128.761 C 49.620 128.256,49.025 127.784,48.849 127.712 C 48.673 127.641,56.930 127.573,67.198 127.561 C 84.170 127.542,85.829 127.578,85.447 127.960 M109.350 128.059 C 109.539 128.413,109.606 143.901,109.560 176.922 L 109.492 225.267 100.802 225.267 L 92.112 225.267 92.037 177.273 C 91.995 150.876,92.031 128.887,92.116 128.409 L 92.270 127.540 100.671 127.540 C 108.711 127.540,109.084 127.562,109.350 128.059 M47.647 143.904 C 47.033 144.518,47.215 151.793,47.853 152.135 C 48.483 152.472,86.731 152.396,87.070 152.057 C 87.431 151.695,87.533 144.804,87.186 144.156 L 86.880 143.583 67.424 143.583 C 52.648 143.583,47.891 143.660,47.647 143.904 M86.840 147.563 C 86.951 152.420,89.417 151.872,67.454 151.872 C 55.172 151.872,48.720 151.778,48.378 151.595 C 47.853 151.314,47.551 144.784,48.041 144.294 C 48.140 144.195,56.893 144.145,67.493 144.183 L 86.765 144.251 86.840 147.563 M62.433 156.064 C 62.139 156.143,61.778 156.299,61.631 156.411 C 61.484 156.523,60.924 156.694,60.387 156.790 C 59.130 157.017,55.937 158.662,55.535 159.291 C 55.417 159.475,55.160 159.626,54.964 159.626 C 53.818 159.626,48.078 167.106,48.121 168.542 C 48.125 168.667,47.956 169.149,47.745 169.612 C 46.490 172.370,46.527 180.209,47.807 182.536 C 47.984 182.857,48.128 183.302,48.128 183.524 C 48.128 184.768,51.821 189.877,53.868 191.465 C 54.608 192.039,55.355 192.626,55.528 192.770 C 56.196 193.326,60.053 195.186,60.540 195.187 C 60.823 195.187,61.244 195.350,61.476 195.550 C 62.236 196.203,65.842 197.017,68.091 197.043 C 69.627 197.061,74.762 195.933,75.217 195.479 C 75.377 195.318,75.674 195.187,75.876 195.187 C 77.127 195.187,83.690 190.081,83.690 189.108 C 83.690 188.954,83.844 188.768,84.031 188.696 C 84.219 188.624,84.708 187.919,85.118 187.130 C 85.527 186.341,85.963 185.515,86.086 185.294 C 88.166 181.558,88.524 172.985,86.742 169.569 C 86.536 169.174,86.366 168.698,86.365 168.511 C 86.358 167.038,81.147 160.792,79.011 159.695 C 78.570 159.469,78.148 159.210,78.075 159.120 C 77.835 158.828,75.545 157.753,75.163 157.753 C 74.805 157.754,72.897 156.943,71.791 156.319 C 71.241 156.009,63.437 155.796,62.433 156.064 M70.605 156.675 C 71.699 156.963,73.070 157.445,73.653 157.744 C 74.235 158.044,74.867 158.289,75.057 158.289 C 75.273 158.289,75.401 158.643,75.401 159.244 C 75.401 159.769,75.582 160.379,75.802 160.600 C 76.023 160.820,76.203 161.346,76.203 161.768 C 76.203 162.190,76.324 162.610,76.471 162.701 C 76.907 162.970,76.800 167.733,76.339 168.619 C 76.119 169.040,75.938 169.594,75.937 169.850 C 75.932 171.379,71.150 175.399,69.332 175.403 C 68.920 175.403,68.102 175.545,67.513 175.718 L 66.444 176.032 67.246 176.220 C 68.795 176.582,71.303 176.497,71.658 176.070 C 71.841 175.849,72.192 175.668,72.438 175.668 C 73.521 175.668,76.282 172.919,77.539 170.588 C 78.375 169.036,78.540 163.267,77.772 162.394 C 77.532 162.122,77.253 161.628,77.153 161.297 C 77.052 160.965,76.729 160.566,76.436 160.409 C 75.691 160.010,75.859 158.935,76.654 159.018 C 77.832 159.140,83.422 163.646,83.422 164.472 C 83.422 164.580,83.603 164.848,83.824 165.069 C 84.300 165.545,86.096 168.930,86.098 169.356 C 86.099 169.519,86.305 170.013,86.556 170.455 C 87.746 172.548,87.228 182.439,85.806 184.759 C 85.671 184.980,85.439 185.443,85.290 185.789 C 84.157 188.423,80.835 191.979,78.003 193.588 C 76.663 194.350,76.263 194.545,74.465 195.315 C 73.609 195.681,71.043 196.195,68.850 196.438 C 67.321 196.608,62.663 195.816,62.015 195.275 C 61.784 195.083,61.215 194.850,60.750 194.757 C 60.285 194.664,59.767 194.422,59.599 194.219 C 59.431 194.016,59.021 193.850,58.690 193.850 C 58.358 193.850,57.937 193.670,57.754 193.449 C 57.571 193.229,57.273 193.048,57.093 193.048 C 56.504 193.048,53.332 190.463,52.123 188.998 C 51.474 188.211,50.867 187.507,50.774 187.433 C 50.415 187.149,48.656 183.472,48.087 181.818 C 46.907 178.386,47.486 168.977,48.943 167.914 C 49.043 167.841,49.216 167.480,49.327 167.112 C 49.438 166.745,49.679 166.263,49.863 166.043 C 50.047 165.822,50.243 165.492,50.299 165.309 C 50.470 164.751,52.980 161.962,54.331 160.829 C 56.177 159.281,56.219 159.250,56.952 158.889 C 57.320 158.708,57.801 158.443,58.021 158.300 C 58.834 157.773,60.951 156.951,61.550 156.931 C 61.888 156.920,62.647 156.752,63.235 156.558 C 64.882 156.016,68.313 156.070,70.605 156.675 M66.043 162.264 C 64.792 162.580,63.102 164.771,63.102 166.076 C 63.102 166.543,64.230 168.984,64.445 168.984 C 64.544 168.984,64.902 169.225,65.241 169.519 C 66.177 170.331,68.684 170.272,69.704 169.413 C 73.368 166.330,70.684 161.091,66.043 162.264 M69.556 163.263 C 72.842 166.202,69.120 171.545,65.525 169.051 C 63.106 167.373,63.375 164.044,66.034 162.772 C 66.764 162.422,68.958 162.729,69.556 163.263 M77.807 166.176 C 77.807 167.703,77.695 169.022,77.559 169.106 C 77.150 169.359,77.109 168.985,77.218 165.975 C 77.350 162.311,77.807 162.468,77.807 166.176 M76.900 170.380 C 76.805 170.854,76.550 171.341,76.332 171.463 C 76.114 171.585,75.934 171.829,75.931 172.005 C 75.925 172.456,74.623 173.643,74.390 173.410 C 74.285 173.305,74.379 173.076,74.599 172.903 C 75.235 172.402,76.099 171.056,76.298 170.254 C 76.562 169.190,77.115 169.306,76.900 170.380 M62.166 176.938 C 60.838 177.641,57.487 180.765,57.487 181.300 C 57.487 181.454,57.233 182.136,56.924 182.815 C 56.179 184.450,56.250 189.662,57.024 190.229 C 57.278 190.415,57.487 190.823,57.487 191.137 C 57.487 191.450,57.727 191.857,58.021 192.041 C 58.316 192.224,58.556 192.526,58.556 192.711 C 58.556 192.897,58.737 193.048,58.957 193.048 C 59.178 193.048,59.358 192.943,59.358 192.813 C 59.358 192.684,59.178 192.429,58.957 192.246 C 58.737 192.063,58.556 191.642,58.556 191.311 C 58.556 190.980,58.376 190.197,58.155 189.572 C 57.451 187.576,58.109 183.106,59.289 181.866 C 59.474 181.672,59.626 181.413,59.626 181.291 C 59.626 180.909,62.218 178.404,62.807 178.217 C 63.116 178.119,63.369 177.927,63.369 177.789 C 63.369 177.652,63.566 177.540,63.806 177.540 C 64.919 177.540,66.308 176.924,66.008 176.563 C 65.522 175.977,63.633 176.162,62.166 176.938 M62.299 177.807 C 62.299 177.955,62.119 178.075,61.898 178.075 C 61.678 178.075,61.497 177.955,61.497 177.807 C 61.497 177.660,61.678 177.540,61.898 177.540 C 62.119 177.540,62.299 177.660,62.299 177.807 M59.358 180.618 C 59.358 180.840,59.118 181.227,58.824 181.479 C 58.529 181.731,58.289 182.204,58.289 182.530 C 58.289 182.857,58.168 183.198,58.021 183.289 C 57.620 183.537,57.695 181.916,58.103 181.503 C 58.295 181.309,58.532 180.939,58.630 180.682 C 58.847 180.108,59.358 180.063,59.358 180.618 M65.447 183.572 C 62.319 185.621,62.556 189.108,65.950 190.979 C 68.775 192.536,72.636 188.672,71.134 185.791 C 69.757 183.148,67.462 182.252,65.447 183.572 M57.483 186.045 C 57.478 188.453,57.173 189.633,56.859 188.458 C 56.509 187.152,56.821 183.310,57.255 183.578 C 57.382 183.657,57.485 184.767,57.483 186.045 M69.580 184.414 C 71.743 186.371,71.069 189.610,68.289 190.615 C 65.138 191.754,62.382 187.006,64.796 184.598 C 65.816 183.580,68.543 183.475,69.580 184.414 M47.647 201.123 C 47.427 201.343,47.326 202.668,47.326 205.348 C 47.326 208.027,47.427 209.352,47.647 209.572 C 48.124 210.049,86.775 210.036,87.083 209.559 C 87.423 209.034,87.515 202.371,87.194 201.537 L 86.912 200.802 67.440 200.802 C 52.652 200.802,47.891 200.879,47.647 201.123 M86.430 201.709 C 87.106 202.222,87.127 208.128,86.456 208.869 C 85.900 209.484,48.791 209.647,48.182 209.037 C 47.617 208.473,47.746 201.965,48.329 201.626 C 49.099 201.177,85.836 201.258,86.430 201.709 M48.484 213.309 C 47.863 213.704,48.013 214.132,49.009 214.814 C 49.567 215.196,50.080 215.508,50.148 215.508 C 50.217 215.508,50.843 215.902,51.540 216.383 C 52.237 216.864,53.108 217.407,53.476 217.589 C 53.844 217.771,54.462 218.129,54.851 218.385 C 55.239 218.641,56.202 219.245,56.990 219.728 C 59.162 221.059,59.367 221.190,60.746 222.126 C 61.450 222.604,62.082 222.995,62.150 222.995 C 62.273 222.995,64.204 224.223,65.572 225.172 C 66.553 225.853,67.653 226.025,68.359 225.609 C 68.678 225.421,69.621 224.846,70.455 224.332 C 71.289 223.817,72.171 223.273,72.416 223.123 C 72.661 222.973,73.402 222.494,74.064 222.059 C 75.594 221.053,76.236 220.658,76.738 220.415 C 76.959 220.308,77.709 219.822,78.406 219.335 C 79.103 218.848,79.777 218.449,79.903 218.449 C 80.029 218.449,80.410 218.209,80.749 217.914 C 81.088 217.620,81.509 217.380,81.684 217.380 C 81.859 217.380,82.220 217.139,82.487 216.845 C 82.753 216.551,83.132 216.310,83.330 216.310 C 83.528 216.310,83.690 216.198,83.690 216.061 C 83.690 215.924,83.934 215.734,84.231 215.640 C 86.227 215.006,87.277 213.605,86.011 213.265 C 85.148 213.034,48.850 213.076,48.484 213.309 M85.917 213.813 C 86.088 213.985,83.894 215.495,82.708 216.023 C 82.389 216.165,81.546 216.690,80.836 217.191 C 80.126 217.691,79.365 218.184,79.144 218.285 C 78.320 218.665,76.231 220.026,75.716 220.518 C 75.522 220.704,75.246 220.856,75.104 220.856 C 74.961 220.856,74.519 221.084,74.120 221.363 C 73.722 221.642,72.493 222.437,71.390 223.128 C 70.287 223.820,69.059 224.614,68.661 224.893 C 67.675 225.584,67.072 225.533,65.722 224.645 C 62.479 222.510,61.072 221.658,60.793 221.658 C 60.624 221.658,60.416 221.477,60.331 221.257 C 60.246 221.036,60.002 220.856,59.787 220.856 C 59.572 220.856,59.237 220.698,59.043 220.505 C 58.703 220.167,55.593 218.209,54.077 217.378 C 53.673 217.157,52.765 216.585,52.059 216.108 C 51.353 215.631,50.727 215.241,50.667 215.241 C 50.347 215.241,48.712 213.944,48.853 213.803 C 49.078 213.578,85.692 213.589,85.917 213.813 " stroke="none" fill="#dc7524" fill-rule="evenodd"></path><path id="path6" d="M1.248 1.248 C 1.150 1.346,1.099 60.995,1.136 133.801 L 1.203 266.176 1.270 134.023 L 1.337 1.870 67.001 1.873 C 130.673 1.876,133.341 1.853,133.010 1.318 C 132.834 1.034,1.532 0.963,1.248 1.248 M266.507 1.229 C 265.750 1.986,267.436 2.004,332.222 1.937 L 397.861 1.870 397.861 134.256 C 397.861 251.903,397.906 266.606,398.262 266.310 C 398.747 265.908,398.886 3.028,398.402 1.755 L 398.142 1.070 332.404 1.070 C 296.249 1.070,266.595 1.141,266.507 1.229 " stroke="none" fill="#a41c24" fill-rule="evenodd"></path><path id="path7" d="M132.887 1.805 C 132.886 1.915,132.887 61.411,132.888 134.019 L 132.889 266.032 132.287 266.177 C 131.956 266.257,102.326 266.290,66.444 266.250 L 1.203 266.176 1.069 133.957 L 0.935 1.738 0.869 133.837 C 0.817 236.298,0.874 266.008,1.123 266.257 C 1.463 266.597,132.117 266.754,133.000 266.415 C 133.510 266.219,133.665 1.604,133.155 1.604 C 133.008 1.604,132.887 1.695,132.887 1.805 M266.443 133.957 L 266.444 266.444 332.219 266.445 L 397.995 266.446 332.353 266.311 L 266.711 266.176 266.577 133.824 L 266.443 1.471 266.443 133.957 " stroke="none" fill="#ac3c4c" fill-rule="evenodd"></path><path id="path8" d="M67.564 41.388 C 67.151 41.440,66.738 41.684,66.645 41.931 C 66.553 42.178,66.289 42.520,66.059 42.692 C 65.719 42.946,65.626 43.773,65.556 47.153 C 65.491 50.346,65.383 51.375,65.088 51.620 C 64.878 51.794,64.706 52.043,64.706 52.172 C 64.706 52.301,64.465 52.647,64.171 52.941 C 63.877 53.235,63.636 53.665,63.636 53.896 C 63.636 54.127,63.456 54.497,63.235 54.717 C 63.015 54.938,62.820 55.621,62.803 56.236 L 62.773 57.353 62.586 56.400 C 62.385 55.369,61.497 53.870,61.497 54.560 C 61.497 54.781,61.703 55.254,61.953 55.612 C 62.547 56.460,62.539 59.380,61.939 60.742 L 61.507 61.725 62.325 62.413 C 63.335 63.263,63.392 63.263,64.191 62.411 C 64.832 61.727,64.917 60.882,64.406 60.259 C 64.094 59.878,63.368 57.121,63.373 56.337 C 63.379 55.342,64.161 53.432,64.988 52.388 C 65.773 51.396,65.775 51.383,65.775 47.717 C 65.775 44.166,65.801 44.000,66.511 42.876 C 67.775 40.874,69.095 41.374,68.323 43.562 C 67.623 45.546,67.933 46.818,69.923 50.134 C 70.728 51.475,70.903 57.470,70.187 59.183 C 69.081 61.831,70.828 64.143,72.564 62.330 L 73.303 61.559 72.748 60.339 C 72.043 58.792,72.038 57.099,72.734 55.800 C 73.032 55.244,73.326 54.193,73.387 53.464 C 73.539 51.655,73.722 51.441,74.496 52.168 C 75.365 52.984,75.750 54.565,75.533 56.429 C 75.366 57.873,75.408 58.037,76.263 59.262 C 79.785 64.306,77.447 71.267,71.390 73.772 C 69.970 74.360,64.884 74.477,63.769 73.948 C 63.284 73.718,62.821 73.529,62.740 73.529 C 61.768 73.529,58.236 69.910,57.653 68.316 C 56.249 64.475,56.421 62.271,58.347 59.425 C 58.770 58.800,59.034 58.289,58.934 58.289 C 58.537 58.289,57.454 59.722,57.311 60.437 C 57.227 60.855,56.992 61.260,56.788 61.338 C 56.236 61.550,56.262 66.385,56.818 66.940 C 57.039 67.161,57.219 67.644,57.219 68.013 C 57.219 68.383,57.341 68.761,57.491 68.853 C 57.640 68.945,57.935 69.433,58.145 69.938 C 58.356 70.443,58.655 70.856,58.810 70.856 C 58.964 70.856,59.091 71.036,59.091 71.257 C 59.091 71.477,59.189 71.658,59.310 71.658 C 59.430 71.658,60.002 72.082,60.580 72.601 C 61.158 73.119,61.931 73.621,62.297 73.715 C 62.663 73.810,63.123 74.047,63.319 74.243 C 63.850 74.774,70.933 74.749,71.376 74.215 C 71.551 74.004,72.036 73.756,72.453 73.665 C 73.632 73.406,77.273 69.623,77.273 68.657 C 77.273 68.465,77.513 67.859,77.807 67.310 C 78.873 65.321,78.084 59.358,76.755 59.358 C 76.633 59.358,76.462 59.148,76.376 58.890 C 76.289 58.633,76.066 58.212,75.879 57.955 C 75.607 57.582,75.605 57.382,75.871 56.956 C 76.322 56.235,76.276 54.263,75.794 53.625 C 75.578 53.340,75.401 52.933,75.401 52.720 C 75.401 52.249,74.172 51.070,73.681 51.070 C 73.241 51.070,73.003 51.902,72.998 53.455 C 72.996 54.201,72.822 54.828,72.527 55.153 C 71.849 55.903,71.848 60.121,72.527 60.800 C 73.116 61.390,73.123 61.344,72.314 62.154 C 71.476 62.991,71.463 62.991,70.686 62.152 C 70.007 61.420,69.841 60.275,70.388 60.094 C 70.913 59.919,71.024 50.741,70.507 50.224 C 70.296 50.014,70.043 49.587,69.945 49.276 C 69.846 48.966,69.590 48.565,69.375 48.387 C 69.160 48.209,68.984 47.792,68.984 47.460 C 68.984 47.128,68.803 46.707,68.583 46.524 C 68.362 46.341,68.182 45.860,68.182 45.455 C 68.182 45.049,68.362 44.568,68.583 44.385 C 69.685 43.470,68.919 41.219,67.564 41.388 M59.940 51.957 C 59.473 52.439,59.099 53.068,59.110 53.355 C 59.126 53.802,59.155 53.813,59.310 53.431 C 59.410 53.186,59.823 52.726,60.228 52.409 C 61.027 51.782,61.118 51.860,61.312 53.342 C 61.385 53.900,61.429 53.768,61.457 52.907 C 61.514 51.146,61.023 50.839,59.940 51.957 M58.451 54.661 C 58.297 55.273,58.646 56.684,58.951 56.684 C 59.028 56.684,59.091 56.083,59.091 55.348 C 59.091 53.943,58.729 53.554,58.451 54.661 M63.739 59.626 C 63.833 60.214,64.029 60.695,64.174 60.695 C 64.616 60.695,64.453 61.592,63.889 62.269 C 63.372 62.891,63.344 62.895,62.816 62.417 C 61.974 61.655,62.441 58.584,63.402 58.560 C 63.493 58.558,63.645 59.037,63.739 59.626 M62.834 78.209 C 62.427 78.699,62.602 78.701,64.305 78.227 L 65.642 77.855 64.404 77.831 C 63.606 77.816,63.049 77.950,62.834 78.209 M70.053 78.117 C 72.307 78.731,72.358 78.735,71.959 78.252 C 71.706 77.945,71.208 77.816,70.355 77.835 L 69.118 77.862 70.053 78.117 M60.198 79.153 C 59.850 79.443,59.335 79.679,59.053 79.679 C 58.770 79.679,58.470 79.860,58.385 80.080 C 58.301 80.301,58.060 80.481,57.851 80.481 C 57.641 80.481,57.401 80.662,57.316 80.882 C 57.231 81.103,57.028 81.283,56.864 81.283 C 56.465 81.283,53.476 84.258,53.476 84.656 C 53.476 84.828,53.295 85.039,53.075 85.123 C 52.854 85.208,52.674 85.503,52.674 85.780 C 52.674 86.056,52.433 86.559,52.139 86.898 C 51.845 87.238,51.604 87.783,51.604 88.110 C 51.604 88.437,51.424 88.854,51.203 89.037 C 50.976 89.226,50.807 89.792,50.814 90.340 L 50.826 91.310 51.230 90.241 C 51.452 89.652,51.734 88.870,51.856 88.503 C 53.150 84.606,57.726 80.236,62.032 78.787 C 62.253 78.713,62.072 78.646,61.631 78.640 C 61.190 78.633,60.545 78.864,60.198 79.153 M72.995 78.863 C 76.050 79.808,82.046 84.990,82.094 86.725 C 82.112 87.384,82.888 88.144,82.888 87.503 C 82.888 87.192,82.707 86.756,82.487 86.536 C 82.266 86.315,82.086 86.062,82.086 85.974 C 82.086 85.831,80.256 83.356,79.745 82.807 C 78.934 81.936,77.096 80.481,76.807 80.481 C 76.613 80.481,76.389 80.312,76.309 80.104 C 76.230 79.897,75.858 79.650,75.483 79.556 C 75.108 79.462,74.627 79.211,74.414 78.997 C 74.201 78.784,73.644 78.620,73.176 78.633 C 72.369 78.654,72.360 78.666,72.995 78.863 M82.888 88.442 C 82.888 88.577,83.097 89.097,83.353 89.598 C 84.014 90.893,84.027 98.334,83.370 99.733 C 83.128 100.247,82.845 100.969,82.740 101.337 C 81.996 103.952,76.890 109.175,74.487 109.778 C 74.108 109.873,73.797 110.049,73.797 110.170 C 73.797 110.290,73.586 110.444,73.329 110.511 C 72.957 110.608,72.978 110.640,73.430 110.664 C 73.743 110.681,74.148 110.515,74.332 110.294 C 74.515 110.074,74.954 109.893,75.309 109.893 C 75.663 109.893,76.022 109.713,76.107 109.492 C 76.191 109.271,76.427 109.091,76.631 109.091 C 76.834 109.091,77.151 108.850,77.335 108.556 C 77.518 108.262,77.794 108.021,77.948 108.021 C 78.341 108.021,81.016 105.268,81.016 104.863 C 81.016 104.679,81.188 104.463,81.398 104.382 C 81.609 104.301,81.908 103.914,82.063 103.521 C 82.218 103.129,82.447 102.627,82.571 102.406 C 83.427 100.888,83.760 99.957,83.888 98.722 C 83.968 97.946,84.137 97.247,84.263 97.169 C 84.565 96.982,84.560 92.320,84.258 92.133 C 84.129 92.054,83.970 91.337,83.904 90.541 C 83.807 89.367,82.888 87.469,82.888 88.442 M50.321 92.834 C 49.846 93.309,49.907 96.114,50.401 96.524 C 50.752 96.815,50.802 96.585,50.802 94.685 C 50.802 92.352,50.802 92.353,50.321 92.834 M50.830 99.139 C 50.811 99.929,50.926 100.332,51.203 100.438 C 51.424 100.523,51.604 100.809,51.604 101.073 C 51.604 101.678,52.937 104.278,53.247 104.278 C 53.373 104.278,53.476 104.432,53.476 104.620 C 53.476 104.808,53.687 105.142,53.945 105.363 C 54.203 105.584,54.654 106.062,54.948 106.426 C 55.828 107.518,58.994 109.893,59.568 109.893 C 59.862 109.893,60.166 110.057,60.243 110.256 C 60.319 110.456,60.889 110.701,61.508 110.800 C 62.128 110.899,62.887 111.156,63.195 111.372 C 64.016 111.947,70.912 111.940,71.390 111.364 C 71.573 111.143,71.979 110.949,72.292 110.932 C 72.759 110.906,72.775 110.878,72.383 110.776 C 72.120 110.708,71.346 110.842,70.664 111.075 C 69.257 111.554,66.166 111.621,64.572 111.206 C 63.984 111.053,63.021 110.824,62.433 110.696 C 58.552 109.855,51.890 103.688,51.875 100.922 C 51.873 100.621,51.738 100.241,51.576 100.078 C 51.413 99.915,51.184 99.380,51.068 98.888 L 50.857 97.995 50.830 99.139 M43.478 99.888 C 43.083 100.918,43.333 105.212,43.850 106.283 C 44.496 107.621,44.575 106.803,43.971 105.030 C 43.482 103.595,43.527 100.134,44.035 100.134 C 44.210 100.134,44.735 100.856,45.201 101.738 C 46.623 104.430,49.458 107.802,51.799 109.586 C 53.198 110.653,55.348 111.996,55.949 112.179 C 56.280 112.280,56.731 112.516,56.952 112.702 C 57.172 112.889,57.774 113.130,58.289 113.236 C 58.803 113.343,59.349 113.530,59.500 113.651 C 60.900 114.772,68.778 115.288,72.059 114.473 C 74.164 113.951,74.178 113.942,72.919 113.923 C 72.216 113.912,71.209 114.084,70.681 114.305 C 70.075 114.558,68.856 114.706,67.380 114.706 C 65.904 114.706,64.684 114.558,64.079 114.305 C 63.551 114.084,62.528 113.904,61.806 113.904 C 60.965 113.904,60.374 113.760,60.160 113.503 C 59.977 113.282,59.498 113.102,59.094 113.102 C 58.691 113.102,58.055 112.861,57.681 112.567 C 57.307 112.273,56.764 112.032,56.475 112.032 C 56.185 112.032,55.798 111.852,55.615 111.631 C 55.432 111.410,55.125 111.230,54.933 111.230 C 54.741 111.230,54.425 111.080,54.230 110.896 C 54.036 110.712,53.343 110.201,52.690 109.759 C 51.318 108.833,48.663 106.276,48.663 105.882 C 48.663 105.735,48.483 105.615,48.262 105.615 C 48.041 105.615,47.861 105.457,47.861 105.264 C 47.861 105.071,47.650 104.674,47.393 104.381 C 46.753 103.652,46.319 102.966,45.847 101.939 C 45.627 101.461,45.344 101.070,45.217 101.070 C 45.090 101.070,44.914 100.709,44.826 100.267 C 44.649 99.384,43.767 99.135,43.478 99.888 M90.160 99.786 C 89.984 99.963,89.840 100.214,89.840 100.346 C 89.840 100.477,89.599 100.890,89.305 101.264 C 89.011 101.638,88.770 102.168,88.770 102.442 C 88.770 102.717,88.671 102.941,88.550 102.941 C 88.299 102.941,86.898 105.002,86.898 105.372 C 86.898 105.505,86.718 105.615,86.497 105.615 C 86.277 105.615,86.096 105.726,86.096 105.861 C 86.096 106.369,81.908 110.160,81.347 110.160 C 81.210 110.160,80.891 110.390,80.637 110.671 C 80.383 110.952,79.883 111.255,79.526 111.345 C 79.169 111.434,78.877 111.626,78.877 111.770 C 78.877 111.914,78.625 112.032,78.318 112.032 C 78.010 112.032,77.452 112.273,77.078 112.567 C 76.457 113.056,76.445 113.102,76.937 113.102 C 77.232 113.102,77.624 112.921,77.807 112.701 C 77.991 112.480,78.255 112.299,78.395 112.299 C 80.593 112.299,87.521 105.683,89.593 101.606 C 91.135 98.571,91.799 102.145,90.487 106.417 C 90.309 106.997,90.336 107.041,90.693 106.749 C 91.252 106.290,91.600 101.685,91.173 100.390 C 90.844 99.395,90.661 99.285,90.160 99.786 M90.150 107.544 C 90.107 108.008,89.439 109.687,89.004 110.428 C 88.875 110.648,88.647 111.112,88.498 111.458 C 86.607 115.854,80.569 121.059,75.134 122.978 C 70.026 124.781,62.228 124.468,57.980 122.289 C 56.966 121.769,56.713 121.855,57.449 122.469 C 57.797 122.758,58.317 122.995,58.605 122.995 C 58.893 122.995,59.310 123.175,59.530 123.396 C 59.758 123.624,60.414 123.798,61.049 123.798 C 61.663 123.799,62.510 123.980,62.932 124.200 C 63.995 124.754,70.687 124.753,71.658 124.198 C 72.025 123.988,72.883 123.811,73.564 123.806 C 74.327 123.800,74.928 123.643,75.134 123.396 C 75.317 123.175,75.723 122.994,76.035 122.993 C 76.348 122.992,76.965 122.752,77.406 122.460 C 77.848 122.168,78.413 121.928,78.663 121.927 C 78.913 121.926,79.214 121.772,79.332 121.585 C 79.449 121.398,79.876 121.100,80.281 120.923 C 80.685 120.745,81.016 120.477,81.016 120.327 C 81.016 120.176,81.200 120.053,81.426 120.053 C 81.651 120.053,81.904 119.873,81.989 119.652 C 82.074 119.432,82.283 119.251,82.455 119.251 C 82.862 119.251,86.631 115.457,86.631 115.047 C 86.631 114.874,86.781 114.636,86.965 114.519 C 87.423 114.226,88.503 112.658,88.503 112.286 C 88.503 112.119,88.743 111.677,89.037 111.303 C 89.332 110.929,89.572 110.438,89.572 110.212 C 89.572 109.986,89.761 109.593,89.992 109.338 C 90.259 109.043,90.372 108.548,90.302 107.980 C 90.242 107.488,90.173 107.292,90.150 107.544 M44.387 108.055 C 44.386 108.442,44.566 108.908,44.786 109.091 C 45.300 109.518,45.301 109.103,44.788 108.119 L 44.388 107.353 44.387 108.055 M45.208 109.952 C 45.183 110.509,46.144 112.408,46.675 112.849 C 46.886 113.024,47.059 113.366,47.059 113.610 C 47.059 113.853,47.269 114.243,47.527 114.477 C 47.784 114.711,48.356 115.359,48.797 115.917 C 49.238 116.475,49.950 117.243,50.379 117.624 C 50.808 118.004,51.346 118.526,51.575 118.783 C 51.803 119.041,52.144 119.251,52.332 119.251 C 52.520 119.251,52.674 119.403,52.674 119.589 C 52.674 119.920,52.862 120.055,54.432 120.850 C 54.862 121.067,55.310 121.398,55.428 121.585 C 55.545 121.772,55.892 121.925,56.199 121.925 C 56.788 121.925,56.157 121.266,55.080 120.757 C 53.672 120.091,51.851 118.663,50.303 117.012 C 49.769 116.442,49.117 115.746,48.854 115.465 C 48.184 114.748,46.514 112.126,45.816 110.695 C 45.493 110.033,45.220 109.699,45.208 109.952 M74.866 113.503 C 74.414 114.047,75.063 114.041,75.786 113.494 C 76.297 113.108,76.296 113.102,75.752 113.102 C 75.448 113.102,75.049 113.282,74.866 113.503 M24.074 127.523 C 23.482 128.628,23.712 225.237,24.308 225.973 L 24.819 226.604 33.573 226.682 L 42.328 226.759 43.089 226.030 L 43.850 225.301 43.846 176.888 C 43.842 125.647,43.881 127.250,42.640 127.065 C 42.156 126.992,42.151 127.010,42.580 127.276 C 43.269 127.704,43.313 225.509,42.625 225.774 C 41.768 226.103,24.992 225.955,24.652 225.615 C 24.405 225.368,24.332 214.109,24.332 176.566 L 24.332 127.838 24.926 127.422 L 25.520 127.005 24.935 127.005 C 24.614 127.005,24.226 127.238,24.074 127.523 M47.660 127.182 C 46.987 127.454,48.496 129.383,49.398 129.404 C 49.582 129.408,49.973 129.652,50.267 129.947 C 50.561 130.241,50.983 130.481,51.203 130.481 C 51.424 130.481,51.604 130.593,51.604 130.731 C 51.604 130.868,51.866 131.063,52.185 131.164 C 52.505 131.266,53.009 131.575,53.305 131.851 C 53.602 132.127,54.002 132.353,54.195 132.353 C 54.388 132.353,54.545 132.471,54.545 132.615 C 54.545 132.759,54.846 132.953,55.214 133.045 C 55.582 133.138,55.882 133.312,55.882 133.433 C 55.882 133.555,56.153 133.737,56.484 133.839 C 56.815 133.940,57.301 134.249,57.564 134.525 C 57.827 134.801,58.265 135.027,58.538 135.027 C 58.811 135.027,59.103 135.207,59.188 135.428 C 59.272 135.648,59.511 135.829,59.718 135.829 C 59.925 135.829,60.255 136.022,60.451 136.258 C 60.647 136.494,61.052 136.794,61.353 136.926 C 61.959 137.191,62.355 137.437,64.222 138.703 C 64.926 139.181,65.688 139.572,65.915 139.572 C 66.141 139.572,66.396 139.753,66.481 139.973 C 66.730 140.623,69.127 139.988,69.768 139.103 C 69.851 138.987,70.221 138.739,70.588 138.551 C 72.237 137.708,72.727 137.387,72.727 137.151 C 72.727 137.012,72.959 136.898,73.243 136.898 C 73.527 136.898,73.968 136.689,74.225 136.432 C 74.771 135.886,75.513 135.429,76.537 135.009 C 76.942 134.843,77.273 134.592,77.273 134.452 C 77.273 134.312,77.634 134.071,78.075 133.917 C 78.516 133.763,78.877 133.529,78.877 133.396 C 78.877 133.264,79.039 133.155,79.237 133.155 C 79.435 133.155,79.875 132.914,80.214 132.620 C 80.553 132.326,80.987 132.086,81.177 132.086 C 81.368 132.086,81.620 131.935,81.738 131.751 C 81.994 131.351,82.711 130.880,83.890 130.339 C 84.368 130.119,84.759 129.821,84.759 129.676 C 84.759 129.530,84.970 129.407,85.227 129.401 C 85.485 129.395,86.090 129.052,86.572 128.640 C 87.596 127.763,87.516 127.000,86.402 127.015 L 85.695 127.024 86.317 127.369 L 86.938 127.714 86.049 128.372 C 85.195 129.005,84.052 129.772,83.111 130.344 C 81.386 131.394,79.582 132.529,78.209 133.432 C 77.326 134.012,76.364 134.609,76.070 134.759 C 75.775 134.910,74.813 135.507,73.930 136.087 C 71.496 137.687,69.592 138.844,68.383 139.460 L 67.291 140.015 66.287 139.460 C 64.723 138.593,61.472 136.566,61.134 136.245 C 60.966 136.086,60.528 135.806,60.160 135.622 C 59.793 135.439,59.174 135.079,58.785 134.823 C 58.397 134.568,57.434 133.962,56.646 133.477 C 55.859 132.992,54.492 132.120,53.610 131.540 C 52.727 130.960,51.825 130.401,51.604 130.299 C 51.211 130.117,48.878 128.545,48.171 127.985 C 47.878 127.753,47.899 127.639,48.289 127.354 C 48.779 126.995,48.388 126.889,47.660 127.182 M109.536 127.321 C 109.854 127.475,110.183 127.858,110.267 128.172 C 110.686 129.731,110.431 225.092,110.008 225.516 C 109.643 225.881,92.255 226.220,91.914 225.869 C 91.878 225.832,91.787 203.723,91.712 176.738 L 91.575 127.674 91.513 176.471 C 91.464 215.372,91.520 225.403,91.790 225.936 L 92.128 226.604 100.702 226.675 C 109.045 226.743,109.296 226.730,109.986 226.187 L 110.695 225.630 110.695 176.740 C 110.695 124.828,110.740 126.996,109.664 127.023 C 108.980 127.041,108.975 127.050,109.536 127.321 M47.380 143.369 C 47.158 143.591,47.059 144.973,47.059 147.861 C 47.059 150.749,47.158 152.131,47.380 152.353 C 48.015 152.988,87.081 152.797,87.424 152.157 C 87.892 151.282,87.778 144.347,87.284 143.642 L 86.868 143.048 67.284 143.048 C 52.409 143.048,47.623 143.125,47.380 143.369 M87.186 144.156 C 87.533 144.804,87.431 151.695,87.070 152.057 C 86.731 152.396,48.483 152.472,47.853 152.135 C 47.215 151.793,47.033 144.518,47.647 143.904 C 47.891 143.660,52.648 143.583,67.424 143.583 L 86.880 143.583 87.186 144.156 M60.893 156.150 C 60.344 156.444,59.663 156.684,59.378 156.684 C 59.094 156.684,58.681 156.865,58.461 157.086 C 58.240 157.306,57.887 157.487,57.675 157.487 C 57.464 157.487,56.985 157.727,56.612 158.021 C 56.238 158.316,55.813 158.556,55.668 158.556 C 55.523 158.556,55.336 158.737,55.251 158.957 C 55.166 159.178,54.924 159.358,54.712 159.358 C 54.084 159.358,49.733 163.984,49.733 164.653 C 49.733 164.798,49.552 164.985,49.332 165.070 C 49.111 165.155,48.930 165.532,48.930 165.909 C 48.930 166.286,48.753 166.662,48.537 166.745 C 48.320 166.829,48.061 167.333,47.961 167.867 C 47.861 168.400,47.617 168.999,47.419 169.197 C 47.205 169.410,47.075 170.066,47.099 170.808 C 47.127 171.678,47.172 171.814,47.246 171.257 C 47.306 170.816,47.528 170.075,47.741 169.612 C 47.954 169.149,48.125 168.667,48.121 168.542 C 48.078 167.106,53.818 159.626,54.964 159.626 C 55.160 159.626,55.417 159.475,55.535 159.291 C 55.937 158.662,59.130 157.017,60.387 156.790 C 60.924 156.694,61.532 156.480,61.739 156.315 C 62.246 155.910,70.810 155.909,71.683 156.314 C 72.037 156.478,72.881 156.869,73.559 157.183 C 74.237 157.497,74.958 157.754,75.163 157.753 C 75.545 157.753,77.835 158.828,78.075 159.120 C 78.148 159.210,78.570 159.469,79.011 159.695 C 81.147 160.792,86.358 167.038,86.365 168.511 C 86.366 168.698,86.536 169.174,86.742 169.569 C 88.524 172.985,88.166 181.558,86.086 185.294 C 85.963 185.515,85.527 186.341,85.118 187.130 C 84.708 187.919,84.219 188.624,84.031 188.696 C 83.844 188.768,83.690 188.954,83.690 189.108 C 83.690 190.101,77.120 195.187,75.838 195.187 C 75.615 195.187,75.359 195.306,75.270 195.450 C 75.181 195.595,74.722 195.825,74.252 195.961 L 73.396 196.208 74.407 196.233 C 75.057 196.248,75.470 196.119,75.565 195.872 C 75.647 195.660,76.056 195.412,76.474 195.320 C 76.893 195.228,77.379 194.980,77.554 194.769 C 77.730 194.558,78.052 194.385,78.270 194.385 C 78.488 194.385,79.286 193.902,80.042 193.311 C 80.798 192.720,81.683 192.028,82.009 191.773 C 82.334 191.519,82.936 190.829,83.345 190.241 C 83.754 189.652,84.240 189.075,84.424 188.957 C 84.609 188.840,84.759 188.565,84.759 188.347 C 84.759 188.129,84.929 187.886,85.136 187.806 C 85.344 187.727,85.590 187.355,85.684 186.980 C 85.778 186.606,86.030 186.124,86.243 185.911 C 86.456 185.698,86.631 185.271,86.631 184.962 C 86.631 184.653,86.822 184.190,87.055 183.932 C 87.288 183.675,87.539 182.943,87.612 182.307 C 87.685 181.670,87.916 180.696,88.124 180.142 C 88.651 178.740,88.634 173.922,88.100 172.897 C 87.880 172.476,87.701 171.752,87.701 171.289 C 87.701 170.826,87.460 169.998,87.166 169.449 C 86.872 168.900,86.631 168.269,86.631 168.046 C 86.631 167.824,86.210 167.042,85.695 166.310 C 85.180 165.578,84.759 164.897,84.759 164.798 C 84.759 164.698,84.581 164.426,84.363 164.194 C 81.989 161.657,80.735 160.428,80.525 160.428 C 80.385 160.428,80.201 160.246,80.116 160.023 C 80.030 159.800,79.686 159.498,79.352 159.352 C 79.017 159.206,78.142 158.735,77.406 158.304 C 76.671 157.874,75.869 157.514,75.623 157.504 C 75.378 157.495,74.836 157.312,74.420 157.099 C 74.004 156.886,73.483 156.641,73.262 156.554 C 73.041 156.467,72.560 156.222,72.193 156.009 C 71.042 155.344,62.192 155.454,60.893 156.150 M66.778 162.756 C 67.109 162.819,67.650 162.819,67.981 162.756 C 68.312 162.692,68.041 162.640,67.380 162.640 C 66.718 162.640,66.447 162.692,66.778 162.756 M65.044 163.351 C 61.826 166.036,65.857 171.623,69.182 169.087 C 71.220 167.532,71.387 164.901,69.552 163.259 C 68.629 162.433,68.563 163.011,69.482 163.869 C 70.877 165.172,70.731 167.275,69.157 168.565 C 67.921 169.577,66.862 169.783,66.310 169.118 C 66.127 168.897,65.872 168.717,65.743 168.717 C 64.268 168.717,63.870 164.875,65.241 163.861 C 66.001 163.300,66.282 162.824,65.842 162.843 C 65.732 162.848,65.373 163.077,65.044 163.351 M77.218 165.975 C 77.109 168.985,77.150 169.359,77.559 169.106 C 77.880 168.908,77.885 163.449,77.564 163.250 C 77.427 163.165,77.277 164.346,77.218 165.975 M76.298 170.254 C 76.099 171.056,75.235 172.402,74.599 172.903 C 74.379 173.076,74.285 173.305,74.390 173.410 C 74.630 173.649,75.925 172.450,75.931 171.984 C 75.934 171.795,76.115 171.572,76.335 171.488 C 76.610 171.382,76.686 171.114,76.581 170.627 C 76.462 170.078,76.491 170.010,76.712 170.321 C 76.948 170.653,76.998 170.619,77.001 170.120 C 77.007 169.276,76.518 169.369,76.298 170.254 M46.419 172.883 C 46.208 173.433,46.208 178.439,46.419 178.989 C 46.746 179.841,47.118 179.416,46.928 178.409 C 46.824 177.858,46.738 176.745,46.738 175.936 C 46.738 175.127,46.824 174.014,46.928 173.463 C 47.118 172.455,46.746 172.031,46.419 172.883 M61.497 177.807 C 61.497 177.955,61.678 178.075,61.898 178.075 C 62.119 178.075,62.299 177.955,62.299 177.807 C 62.299 177.660,62.119 177.540,61.898 177.540 C 61.678 177.540,61.497 177.660,61.497 177.807 M47.092 181.184 C 47.070 182.109,47.189 182.663,47.460 182.888 C 47.680 183.071,47.861 183.435,47.861 183.698 C 47.861 184.299,49.195 186.898,49.503 186.898 C 49.629 186.898,49.733 187.013,49.733 187.154 C 49.733 188.561,56.177 194.385,57.734 194.385 C 58.008 194.385,58.301 194.566,58.385 194.786 C 58.471 195.010,58.868 195.187,59.283 195.187 C 59.874 195.186,59.596 194.964,57.934 194.108 C 56.783 193.516,55.700 192.913,55.528 192.770 C 55.355 192.626,54.608 192.039,53.868 191.465 C 51.821 189.877,48.128 184.768,48.128 183.524 C 48.128 183.302,47.985 182.857,47.809 182.536 C 47.633 182.215,47.407 181.471,47.307 180.882 L 47.126 179.813 47.092 181.184 M58.630 180.682 C 58.532 180.939,58.295 181.309,58.103 181.503 C 57.695 181.916,57.620 183.537,58.021 183.289 C 58.168 183.198,58.289 182.857,58.289 182.530 C 58.289 182.204,58.529 181.731,58.824 181.479 C 59.388 180.995,59.548 180.214,59.083 180.214 C 58.931 180.214,58.727 180.424,58.630 180.682 M57.086 186.228 C 57.086 187.742,57.174 188.844,57.282 188.675 C 57.541 188.271,57.545 183.757,57.286 183.597 C 57.176 183.529,57.086 184.713,57.086 186.228 M65.909 183.872 C 64.513 184.261,63.655 186.159,64.013 188.067 C 64.186 188.988,65.120 190.317,65.398 190.038 C 65.483 189.954,65.302 189.633,64.996 189.327 C 64.145 188.477,64.199 185.663,65.082 184.826 C 65.876 184.074,69.251 183.911,69.251 184.626 C 69.251 184.846,69.418 185.027,69.621 185.027 C 70.553 185.027,70.580 188.323,69.657 189.372 C 69.082 190.024,68.821 190.108,67.326 190.118 C 65.642 190.128,65.642 190.129,66.417 190.548 C 67.914 191.359,70.087 190.071,70.801 187.950 C 71.627 185.496,68.735 183.084,65.909 183.872 M56.770 186.631 C 56.770 187.587,56.819 187.978,56.878 187.500 C 56.937 187.022,56.937 186.240,56.878 185.762 C 56.819 185.284,56.770 185.675,56.770 186.631 M60.428 195.381 C 60.648 195.465,60.925 195.696,61.043 195.895 C 61.160 196.094,61.642 196.240,62.112 196.220 C 62.707 196.195,62.790 196.149,62.386 196.071 C 62.066 196.008,61.660 195.784,61.484 195.572 C 61.308 195.360,60.908 195.197,60.596 195.208 C 60.201 195.223,60.150 195.276,60.428 195.381 M63.102 196.464 C 63.102 196.873,63.811 197.062,65.196 197.025 L 66.444 196.992 65.374 196.784 C 64.786 196.669,64.034 196.490,63.703 196.385 C 63.351 196.273,63.102 196.306,63.102 196.464 M71.123 196.658 L 69.920 197.006 71.157 197.033 C 71.957 197.050,72.512 196.917,72.727 196.658 C 73.140 196.160,72.841 196.160,71.123 196.658 M47.352 200.637 C 47.142 200.891,47.069 202.417,47.119 205.517 L 47.193 210.027 67.169 210.095 C 87.132 210.164,87.145 210.163,87.441 209.610 C 87.917 208.721,87.678 200.852,87.166 200.529 C 86.462 200.084,47.723 200.190,47.352 200.637 M87.194 201.537 C 87.515 202.371,87.423 209.034,87.083 209.559 C 86.775 210.036,48.124 210.049,47.647 209.572 C 47.427 209.352,47.326 208.027,47.326 205.348 C 47.326 202.668,47.427 201.343,47.647 201.123 C 47.891 200.879,52.652 200.802,67.440 200.802 L 86.912 200.802 87.194 201.537 M47.660 212.744 C 47.020 213.002,47.261 214.412,47.975 214.591 C 48.332 214.681,48.832 214.984,49.086 215.265 C 49.340 215.546,49.757 215.775,50.013 215.775 C 50.268 215.775,50.547 215.956,50.631 216.176 C 50.716 216.397,50.943 216.578,51.135 216.578 C 51.328 216.578,51.691 216.818,51.943 217.112 C 52.195 217.406,52.630 217.647,52.910 217.647 C 53.190 217.647,53.488 217.828,53.573 218.048 C 53.657 218.269,53.892 218.449,54.095 218.449 C 54.297 218.449,54.680 218.690,54.947 218.984 C 55.213 219.278,55.640 219.519,55.895 219.519 C 56.151 219.519,56.429 219.699,56.514 219.920 C 56.598 220.140,56.834 220.321,57.036 220.321 C 57.239 220.321,57.682 220.561,58.021 220.856 C 58.361 221.150,58.787 221.390,58.970 221.390 C 59.152 221.390,59.370 221.571,59.455 221.791 C 59.540 222.012,59.847 222.193,60.139 222.193 C 60.430 222.193,60.765 222.343,60.882 222.527 C 61.138 222.927,61.856 223.398,63.035 223.939 C 63.513 224.159,63.904 224.446,63.904 224.576 C 63.904 224.707,64.235 224.944,64.639 225.104 C 65.043 225.263,65.555 225.497,65.775 225.623 C 67.281 226.485,67.647 226.604,67.647 226.232 C 67.647 226.101,67.334 225.915,66.952 225.819 C 66.569 225.723,65.938 225.424,65.548 225.154 C 64.180 224.208,62.271 222.995,62.150 222.995 C 62.082 222.995,61.450 222.604,60.746 222.126 C 59.367 221.190,59.162 221.059,56.990 219.728 C 56.202 219.245,55.239 218.641,54.851 218.385 C 54.462 218.129,53.844 217.771,53.476 217.589 C 53.108 217.407,52.237 216.864,51.540 216.383 C 50.843 215.902,50.217 215.508,50.148 215.508 C 49.762 215.508,48.009 214.070,48.083 213.813 C 48.274 213.151,49.395 213.110,67.112 213.109 C 85.548 213.109,86.486 213.140,86.725 213.763 C 86.857 214.106,85.248 215.317,84.231 215.640 C 83.934 215.734,83.690 215.924,83.690 216.061 C 83.690 216.198,83.528 216.310,83.330 216.310 C 83.132 216.310,82.753 216.551,82.487 216.845 C 82.220 217.139,81.859 217.380,81.684 217.380 C 81.509 217.380,81.088 217.620,80.749 217.914 C 80.410 218.209,80.029 218.449,79.903 218.449 C 79.777 218.449,79.103 218.848,78.406 219.335 C 77.709 219.822,76.959 220.308,76.738 220.415 C 76.236 220.658,75.594 221.053,74.064 222.059 C 73.402 222.494,72.661 222.973,72.416 223.123 C 72.171 223.273,71.289 223.817,70.455 224.332 C 69.621 224.846,68.678 225.416,68.359 225.598 C 67.877 225.873,67.859 225.929,68.251 225.932 C 68.510 225.934,69.299 225.530,70.004 225.034 C 70.710 224.539,71.551 224.049,71.873 223.947 C 72.196 223.845,72.460 223.649,72.460 223.511 C 72.460 223.374,72.622 223.262,72.820 223.262 C 73.018 223.262,73.458 223.021,73.797 222.727 C 74.136 222.433,74.569 222.193,74.760 222.193 C 74.951 222.193,75.203 222.042,75.321 221.858 C 75.534 221.526,76.201 221.096,77.607 220.386 C 78.011 220.181,78.342 219.903,78.342 219.767 C 78.342 219.630,78.564 219.519,78.836 219.519 C 79.107 219.519,79.547 219.278,79.813 218.984 C 80.079 218.690,80.462 218.449,80.665 218.449 C 80.867 218.449,81.102 218.269,81.187 218.048 C 81.271 217.828,81.554 217.647,81.814 217.647 C 82.074 217.647,82.448 217.454,82.643 217.218 C 82.839 216.982,83.245 216.680,83.545 216.546 C 83.845 216.412,84.452 216.061,84.893 215.767 C 85.334 215.472,86.026 215.086,86.431 214.910 C 87.302 214.529,87.575 213.866,87.171 213.112 C 86.891 212.589,48.920 212.236,47.660 212.744 " stroke="none" fill="#d44424" fill-rule="evenodd"></path></g></svg>
